<?xml version="1.0" encoding="UTF-8" standalone="no"?>
<!-- Created with Inkscape (http://www.inkscape.org/) -->

<svg
   version="1.1"
   id="svg1"
   width="1410.1753"
   height="814.4314"
   viewBox="0 0 1410.1753 814.4314"
   sodipodi:docname="Dawn E Photography Logo-inverted.svg"
   inkscape:version="1.4 (e7c3feb1, 2024-10-09)"
   xmlns:inkscape="http://www.inkscape.org/namespaces/inkscape"
   xmlns:sodipodi="http://sodipodi.sourceforge.net/DTD/sodipodi-0.dtd"
   xmlns="http://www.w3.org/2000/svg"
   xmlns:svg="http://www.w3.org/2000/svg">
  <defs
     id="defs1" />
  <sodipodi:namedview
     id="namedview1"
     pagecolor="#ffffff"
     bordercolor="#000000"
     borderopacity="0.25"
     inkscape:showpageshadow="2"
     inkscape:pageopacity="0.0"
     inkscape:pagecheckerboard="0"
     inkscape:deskcolor="#d1d1d1"
     inkscape:zoom="0.48826291"
     inkscape:cx="686.10577"
     inkscape:cy="329.74039"
     inkscape:window-width="1512"
     inkscape:window-height="855"
     inkscape:window-x="0"
     inkscape:window-y="38"
     inkscape:window-maximized="1"
     inkscape:current-layer="svg1" />
  <path
     style="fill:#ffffff;fill-opacity:1"
     d="m 533.62955,812.88993 c -2.83706,-1.19657 -33.20223,-16.24068 -54.80113,-27.15064 -3.12843,-1.58023 -6.66723,-1.55628 -14.13979,0.0957 -13.336,2.94823 -25.4975,4.27364 -39.05908,4.25682 -23.34861,-0.029 -44.268,-4.20597 -63.4659,-12.67237 -10.91035,-4.81154 -9.90223,-4.80758 -14.35503,-0.0564 -13.77238,14.69538 -24.78308,22.78867 -41.22763,30.3039 -11.27447,5.15248 -23.08257,2.6094 -25.87011,-5.57158 -1.95089,-5.72553 -1.02016,-18.66444 2.24928,-31.2693 2.4074,-9.28137 9.43353,-22.40988 16.14088,-30.15961 2.72026,-3.14302 3.0657,-5.23295 0.84105,-5.08849 -0.72189,0.0469 -3.56253,0.40485 -6.31253,0.7955 -6.99237,0.9933 -31.43445,0.51239 -40,-0.78701 -10.15649,-1.54075 -14.23422,-2.72582 -21.28732,-6.18656 -7.77113,-3.81304 -12.01595,-7.79881 -13.69755,-12.86163 -2.1594,-6.50135 0.53494,-10.75498 11.19449,-17.67307 9.05589,-5.87731 18.39298,-9.91793 30.04948,-13.00387 20.37484,-5.39405 46.24148,-6.16657 69.7409,-2.08284 6.41667,1.11508 13.31667,2.4784 15.33333,3.02959 5.34704,1.46144 6.23753,1.37979 5.2566,-0.48201 -2.56844,-4.87481 -25.16873,-29.8333 -27.01454,-29.8333 -0.5312,0 -2.93325,1.06228 -5.33788,2.36063 -9.3213,5.03289 -20.38527,7.33256 -38.90417,8.08631 -24.84206,1.01112 -48.05461,-5.24658 -67.51243,-18.20017 -7.08228,-4.71487 -18.04405,-14.72626 -21.29017,-19.44434 -3.73686,-5.43134 -3.1233,-10.11652 1.64221,-12.54001 1.18822,-0.60426 2.27077,-1.19588 2.40568,-1.31472 0.13491,-0.11883 -2.33651,-2.65994 -5.49204,-5.64691 -6.12777,-5.80045 -10.71224,-12.06123 -13.16655,-17.9809 -1.25057,-3.01631 -1.52092,-4.93174 -1.55067,-10.98656 -0.0341,-6.93416 0.0824,-7.58348 2.14037,-11.92897 4.24549,-8.96471 11.35896,-17.34624 20.35808,-23.98714 5.17852,-3.82149 16.43934,-10.77414 18.51969,-11.43441 1.6348,-0.51887 1.63075,-1.4144 -0.0103,-2.29269 -2.05952,-1.10222 -4.32047,-0.83486 -13.62409,1.61106 -16.45493,4.326 -29.62906,6.16812 -45.0864,6.30436 -27.21547,0.23989 -50.3347,-6.37582 -71.921405,-20.58076 -12.18587,-8.0188 -21.41193,-18.93782 -21.41193,-25.34094 0,-4.45419 5.67132,-8.81319 14.32907,-11.01338 10.25309,-2.60561 38.236445,-4.0135 55.004265,-2.76736 11.67761,0.86785 11.66666,0.86802 11.66666,-0.18397 0,-2.56314 -20.94048,-8.88205 -34.44765,-10.39478 -15.466435,-1.73216 -22.626375,-4.05373 -31.966945,-10.36511 -5.19815,-3.51234 -12.35086,-10.24971 -13.75817,-12.95924 -3.35084,-6.45141 -1.97579,-8.64574 5.38892,-8.59976 8.61913,0.0538 22.24851,4.93212 32.362665,11.58341 3.16496,2.08135 9.44133,6.93339 13.94749,10.78231 9.7297,8.31059 14.5291,11.28368 24.85411,15.39639 4.24259,1.68993 12.69845,5.19474 18.79082,7.78846 6.09236,2.59372 11.54616,4.71586 12.11954,4.71586 2.44111,0 -0.0935,-5.65404 -6.16557,-13.75356 -2.16323,-2.88555 -8.81231,-12.29644 -14.77574,-20.91311 -5.96343,-8.61667 -11.1304,-15.84905 -11.48215,-16.07195 -0.35175,-0.22291 -4.29081,-0.57618 -8.75345,-0.78504 -14.4445,-0.67602 -28.6953,-5.3623 -52.447245,-17.24688 C 53.646535,406.38868 45.197215,400.64908 31.656339,387.15943 15.738029,371.30133 8.8552824,361.27729 2.5892524,344.82609 0.29408639,338.80023 0.04582639,337.52924 0.00645939,331.60325 c -0.04039,-6.08045 0.06874,-6.64731 1.50401701,-7.81205 2.164882,-1.75683 5.841722,-2.29853 9.8684656,-1.45391 10.801658,2.26567 44.408753,17.69876 63.583963,29.19911 5.31666,3.18867 13.04406,8.30831 17.17199,11.37697 7.08195,5.26466 8.828005,6.26755 8.828005,5.0706 0,-0.27984 -1.527835,-4.10484 -3.395185,-8.5 -1.86735,-4.39517 -4.44912,-10.54121 -5.73727,-13.65788 -6.60964,-15.99198 -6.43237,-15.77629 -19.1563,-23.30695 -3.81731,-2.25927 -8.92968,-5.93043 -11.36081,-8.15812 -12.12295,-11.10848 -23.91606,-31.06969 -29.265312,-49.53493 -3.47849,-12.0075 -3.884335,-24.3292 -0.993328,-30.15806 1.516506,-3.05759 1.692405,-3.18281 4.74601,-3.37865 6.61357,-0.42415 16.32291,7.0342 25.71029,19.74968 6.35776,8.61178 7.11825,9.34212 7.97971,7.66341 0.34143,-0.66534 0.79904,-2.55971 1.01691,-4.20971 1.00367,-7.60125 6.04946,-21.91953 11.71783,-33.25132 5.84286,-11.68063 10.16964,-18.19297 16.31471,-24.55569 6.015715,-6.22878 8.684875,-6.20946 11.897935,0.0861 4.75527,9.31734 5.91345,46.42938 2.13287,68.34493 -3.28808,19.06068 -10.62949,39.49914 -20.083095,55.91128 -1.96483,3.41109 -3.74419,7.06082 -3.95413,8.1105 -0.27866,1.39331 0.52265,4.03831 2.96833,9.79802 1.84252,4.33923 5.06233,11.9395 7.15513,16.8895 7.475445,17.68123 11.683855,24.33602 22.860695,36.14974 3.12017,3.29796 4.07434,2.55019 3.36857,-2.63987 -0.61993,-4.55878 -1.73313,-18.4968 -2.22378,-27.8432 -0.37471,-7.13793 -1.11766,-13.82026 -2.77954,-25 -2.5556,-17.19195 -0.66804,-31.00921 6.14741,-45 3.93524,-8.07827 5.45491,-9.89263 8.22005,-9.81401 2.76845,0.0787 4.23578,1.42131 5.97702,5.46894 2.50747,5.82876 3.44471,10.71464 3.32725,17.34507 -0.1687,9.52255 -2.28674,17.00995 -8.25815,29.19308 -2.76195,5.63503 -6.13902,12.99683 -7.50461,16.35955 l -2.48289,6.11404 0.0797,10.33333 c 0.12687,16.45048 2.57958,32.43527 5.96718,38.88943 6.20581,11.82347 7.58878,14.74754 9.51936,20.12724 2.39959,6.68666 4.52032,10.42831 12.36182,21.81026 5.03702,7.31126 7.05896,9.26455 7.05896,6.81933 0,-0.56123 -0.76549,-5.13623 -1.70108,-10.16667 -2.65778,-14.29014 -3.46127,-22.19346 -3.57313,-35.14626 -0.14805,-17.14155 1.30875,-29.18283 5.61281,-46.39312 2.99373,-11.97078 5.17663,-18.33496 8.68465,-25.31984 3.2147,-6.40085 6.03064,-9.28704 9.061,-9.28704 6.2544,0 11.50579,7.03592 17.66406,23.66667 1.6293,4.4 3.2429,8.66815 3.58579,9.48477 1.42975,3.40513 5.16382,21.04692 6.95273,32.84856 0.98534,6.5004 1.37433,16.02035 1.32114,32.33334 -0.0622,19.07758 -1.15062,32.20799 -3.69274,44.54844 -1.53631,7.45783 -5.45131,20.24908 -7.32269,23.925 -1.87869,3.69026 -1.59346,4.83941 2.24195,9.03235 1.92565,2.10515 7.14062,8.17754 11.58883,13.49421 13.07255,15.6248 13.4962,15.78081 12.37431,4.55683 -2.54874,-25.49886 3.02969,-56.24626 14.60752,-80.51427 4.47689,-9.3839 8.11221,-14.59641 11.95209,-17.13752 5.46681,-3.61777 12.53109,-0.67088 18.9904,7.9219 8.13567,10.82283 13.50018,22.84065 19.8816,44.53964 l 1.08811,3.69993 7.69709,4.80007 c 4.2334,2.64005 7.96929,4.80008 8.30197,4.80008 0.79439,0 1.38757,-1.00616 1.67688,-2.84433 0.12889,-0.81895 0.58895,-3.739 1.02236,-6.489 1.00541,-6.37935 2.69582,-12.60957 5.69612,-20.99376 2.43944,-6.81687 3.07339,-12.29346 1.71652,-14.82879 -0.62564,-1.16903 -3.00862,-9.19762 -5.19739,-17.51078 -0.53097,-2.01667 -1.39082,-4.31689 -1.91078,-5.11161 -0.62768,-0.95936 -4.48088,-2.82924 -11.46609,-5.56425 -24.13436,-9.44966 -40.64001,-19.95446 -58.52071,-37.24472 -11.03742,-10.67296 -16.83609,-18.79121 -18.78293,-26.29645 -1.17976,-4.54808 -1.12603,-9.80703 0.11834,-11.58362 2.9848,-4.2614 13.13415,-3.20874 25.57191,2.65224 13.09305,6.16976 39.12232,23.40571 50.42601,33.39088 1.56919,1.38614 2.91249,2.11019 3.26395,1.75929 0.35191,-0.35134 0.26336,-2.66634 -0.21555,-5.63504 -0.44705,-2.77129 -0.92861,-6.01251 -1.07013,-7.20271 -0.14151,-1.19021 -0.60682,-4.11401 -1.03401,-6.49735 -0.73628,-4.10784 -0.98894,-4.52413 -4.85528,-8 -8.09161,-7.2744 -13.98021,-13.77958 -18.10277,-19.99824 -3.96874,-5.98662 -9.01977,-16.15817 -10.00643,-20.1505 -0.44276,-1.79155 -0.47538,-1.80158 -2.48244,-0.76369 -2.60062,1.34483 -7.943,1.53297 -9.39342,0.3308 -0.64375,-0.53356 -1.10391,-1.88978 -1.10391,-3.25352 0,-2.0159 0.64844,-2.97553 4.69987,-6.95528 3.1966,-3.14003 4.5913,-4.97808 4.36041,-5.74648 -0.71059,-2.36488 -1.12283,-8.08221 -1.13896,-15.79642 -0.0285,-13.62866 3.45016,-25.98451 10.75843,-38.21284 1.82613,-3.05553 3.32025,-6.11614 3.32025,-6.80137 0,-0.8239 -2.08816,-2.66953 -6.16526,-5.44917 -6.17197,-4.20786 -19.26316,-16.52206 -22.89552,-21.53661 -1.0624,-1.46667 -2.12341,-2.81667 -2.35779,-3 -2.40762,-1.88322 -14.40914,-24.20635 -16.48723,-30.66667 -3.07414,-9.55681 -3.5639,-15.52944 -1.48362,-18.09281 1.18129,-1.4556 1.74479,-1.57133 7.5,-1.5403 6.09528,0.0329 6.37752,0.10615 13.77826,3.57782 5.16627,2.42348 7.77188,3.3279 8.23974,2.86005 0.46785,-0.46786 0.4188,-2.92387 -0.15514,-7.76665 -2.48996,-21.01005 2.45572,-47.56536 10.04847,-53.954254 5.17943,-4.3582 11.49349,-0.42877 22.22672,13.832364 2.14907,2.85544 4.34226,5.99243 4.87376,6.97108 0.53149,0.97865 2.00272,3.57937 3.26939,5.77937 5.76683,10.016 12.17907,26.46355 14.94462,38.33333 0.46132,1.97998 1.0746,4.86639 2.9038,13.66667 0.30258,1.45574 2.09462,14.56271 3.00792,22 0.31519,2.56667 0.63177,9.56527 0.70352,15.55244 0.0718,5.98718 0.29926,11.3257 0.50559,11.86338 0.53826,1.40268 1.26738,0.21546 8.32396,-13.55373 3.34357,-6.52415 8.62299,-16.06209 11.73204,-21.19542 9.19682,-15.1848 8.84198,-14.41713 9.46779,-20.48279 0.3151,-3.05412 1.34828,-7.77221 2.29594,-10.48463 0.94767,-2.71243 1.72303,-5.47488 1.72303,-6.13879 0,-0.6639 -0.90345,-2.6754 -2.00767,-4.46999 -4.88179,-7.93391 -11.47737,-24.61005 -13.35129,-33.75714 -0.30047,-1.46666 -0.72057,-3.11666 -0.93357,-3.66666 -0.21299,-0.55 -0.81341,-4.3 -1.33427,-8.33334 -1.59375,-12.341434 -0.86062,-26.565625 2.06165,-40.000001 0.78088,-3.589931 5.23321,-14.015262 8.2654,-19.353831 5.5174,-9.714126 12.86759,-15.901803 17.50635,-14.737548 2.0962,0.526113 6.02063,4.660026 7.99779,8.424713 2.27655,4.334758 5.07442,11.542168 5.75629,14.828396 2.2673,10.927163 2.8741,14.371238 3.73019,21.171604 1.14427,9.089533 1.26658,24.960617 0.25055,32.510327 -0.39888,2.96394 -0.62388,5.89341 -0.5,6.50994 0.17428,0.86729 1.87221,-0.10795 7.50317,-4.30956 l 7.27792,-5.43052 -0.15664,-7.812674 c -0.19458,-9.70514 1.48074,-18.585604 5.4894,-29.098092 3.72287,-9.762976 7.19232,-15.819106 11.72044,-20.458654 6.97714,-7.148841 11.35416,-6.022484 13.81257,3.554443 1.60042,6.234574 0.95669,25.439354 -1.10172,32.868123 -2.14686,7.748 -2.31096,9 -1.17965,9 0.52703,0 4.08608,-0.45778 7.909,-1.01728 8.63536,-1.26383 13.61823,-3.56199 18.52287,-8.54298 l 3.57211,-3.62771 -1.17186,-7.906016 c -1.89763,-12.802483 -1.30995,-27.200328 1.44629,-35.433181 4.78607,-14.295876 21.71196,-34.0664859 30.70382,-35.86415885 4.15538,-0.830754 6.5398,3.43454195 7.29978,13.05799285 0.86766,10.986822 -4.64229,30.408177 -12.11864,42.715587 -2.61968,4.312447 -2.70251,4.617746 -1.25298,4.617746 1.60946,0 8.46289,-5.53253 16.99329,-13.718072 10.43373,-10.011924 16.63233,-14.053481 26.45768,-17.25071 9.08668,-2.956858 27.44525,-2.056992 29.40294,1.441219 0.85772,1.532652 -0.22384,5.393515 -2.36085,8.427603 -3.86271,5.484192 -15.82961,13.118194 -25.87703,16.50764 -4.89775,1.652229 -6.85406,1.738822 -26,1.150857 -8.84464,-0.271615 -9.79159,0.11445 -20.39343,8.314278 -3.88305,3.003285 -10.12876,7.681706 -13.87937,10.396491 -3.7506,2.714785 -8.73052,6.668024 -11.06649,8.784964 -4.5937,4.163 -4.60288,4.47979 -0.17113,5.90711 2.81855,0.90776 4.8815,3.17518 5.51562,6.06228 0.23689,1.07858 0.65337,2.09866 0.92551,2.26685 0.27214,0.16819 2.87405,-0.43626 5.78204,-1.34322 11.21077,-3.49649 20.34191,-4.92054 31.62058,-4.9314 17.56691,-0.0169 35.58171,4.66306 38.318,9.954474 2.3883,4.61845 0.0746,10.98678 -6.46666,17.79878 -15.23777,15.86855 -48.41295,26.11173 -79.85134,24.65492 -4.95,-0.22938 -10.39377,-0.60413 -12.09728,-0.83277 l -3.09728,-0.41572 -5.26293,4.92183 c -12.26475,11.46987 -21.0679,17.66353 -34.5425,24.30321 -11.53958,5.68618 -19.03688,7.63818 -31.07322,8.09024 l -9.07322,0.34077 -4.06577,6.08419 c -10.1116,15.13142 -33.26338,61.81871 -34.50465,69.58117 -0.29538,1.84718 -0.048,4.25183 0.73475,7.14374 1.72631,6.37749 2.22196,6.16615 8.87198,-3.78301 6.33931,-9.4843 13.47497,-17.8943 20.91754,-24.65313 3.35397,-3.04585 7.46939,-7.02205 9.14536,-8.836 10.00913,-10.83313 13.92434,-14.24296 19.47343,-16.95976 6.62113,-3.24167 12.16204,-4.75599 17.21386,-4.70453 9.59027,0.0977 11.74104,3.94326 6.53655,11.68726 -2.74704,4.08744 -7.35754,7.66424 -14.19377,11.01145 -6.96218,3.40887 -12.07418,4.42556 -22.55165,4.48512 -6.67442,0.0379 -8.92911,0.28478 -10.19854,1.11654 -2.27155,1.48838 -9.74494,9.00006 -15.12801,15.20553 -4.04499,4.66296 -12.74832,17.05024 -12.28643,17.48703 0.1,0.0945 3.49138,-0.93286 7.53643,-2.28314 6.14414,-2.05098 8.12391,-3.07659 12.02843,-6.2313 14.99063,-12.11188 34.28396,-21.3016 52.28359,-24.9035 14.55109,-2.91182 20.02245,-0.76983 19.9841,7.82358 -0.0139,3.11634 -0.24091,4.60947 -1.40169,9.2197 -0.20413,0.81071 1.13441,1.08059 7.41759,1.49552 45.73271,3.02015 80.43121,23.41705 100.52586,59.09235 11.71792,20.80356 16.0499,41.9103 15.26816,74.39116 -0.56843,23.61802 -3.40556,40.20827 -11.46324,67.03174 -4.14619,13.8024 -4.3533,14.71224 -3.64877,16.02868 0.82927,1.5495 5.17072,2.06556 15.32836,1.82204 l 7.67705,-0.18405 4.98671,-5.24984 c 5.35729,-5.63996 10.798,-9.81366 16.6592,-12.77965 5.09347,-2.57749 12.4516,-3.05117 16.89113,-1.08735 2.41976,1.07038 3.10887,1.72006 3.10887,2.93102 0,2.72929 -1.70374,4.32478 -5.14967,4.82249 -1.75101,0.2529 -4.68367,1.14165 -6.517,1.97499 -5.49919,2.49965 -14.19917,11.73647 -19.43127,20.63029 -2.38042,4.04637 -5.17047,11.04519 -4.62183,11.59383 0.52818,0.52819 8.08854,-5.01001 14.47582,-10.604 3.49488,-3.06081 7.58888,-6.4201 9.09779,-7.46509 7.52076,-5.20844 14.81057,-4.90992 22.15539,0.90729 6.39049,5.06136 10.86514,5.16055 21.40547,0.47449 l 3.74803,-1.66632 0.48568,-5.24107 c 0.8203,-8.85214 3.23759,-12.24108 8.73142,-12.24108 6.7179,0 7.98348,1.74108 6.90719,9.50234 -0.63427,4.57385 -0.58137,6.53998 0.31484,11.7006 2.50282,14.41197 4.75234,14.37303 11.72348,-0.20294 2.10436,-4.4 4.61051,-8.72117 5.56922,-9.60259 3.24061,-2.97937 10.97985,-2.97996 14.19788,-0.001 0.95282,0.88201 3.51258,5.1957 5.68835,9.58597 5.1125,10.316 5.36078,10.48751 9.25523,6.39359 3.79104,-3.98522 7.48598,-13.95371 11.25917,-30.3759 0.75822,-3.3 1.93072,-6.75 2.60557,-7.66667 2.31523,-3.14485 7.99476,-3.4378 10.87179,-0.56077 1.29744,1.29744 1.37067,1.86428 0.95396,7.38435 -1.6734,22.16723 -10.927,41.84044 -21.35094,45.39223 -4.43091,1.50976 -10.86014,1.4346 -15.10032,-0.17654 -2.09093,-0.79449 -4.90563,-2.72475 -7.29099,-5 -2.13691,-2.03826 -4.19477,-3.70593 -4.57302,-3.70593 -0.37826,0 -1.52553,1.10072 -2.54949,2.44605 -9.73621,12.79184 -18.65311,15.90655 -27.39945,9.57073 -2.07071,-1.50001 -3.38881,-3.33909 -5.37682,-7.50197 -1.4485,-3.03315 -2.83878,-6.51098 -3.08952,-7.72852 -0.3583,-1.73977 -0.69211,-2.10888 -1.55927,-1.7241 -6.71029,2.97759 -10.65479,3.79235 -18.43669,3.80819 -6.95162,0.0142 -8.73077,-0.2235 -13.57633,-1.81349 -3.23837,-1.06263 -6.23427,-1.66466 -7.14562,-1.43592 -0.86311,0.21662 -4.44052,2.851 -7.94979,5.85417 -8.98492,7.6891 -13.38871,10.92007 -17.99493,13.20247 -7.12838,3.53214 -13.708,3.95119 -19.15691,1.22007 -6.16897,-3.09202 -6.50025,-9.03097 -1.14162,-20.466 1.44753,-3.08894 2.63187,-5.74584 2.63187,-5.90423 0,-0.15839 -4.62917,-0.19186 -10.28704,-0.0744 -9.13557,0.18968 -10.49744,0.36734 -12.16667,1.58715 -1.2375,0.90432 -4.04325,5.57319 -8.21296,13.66667 -13.05911,25.34796 -27.29483,46.47569 -43.82427,65.04116 l -5.55979,6.24461 -0.25576,9.837 c -0.14068,5.41035 -0.44713,11.637 -0.68102,13.837 -0.51542,4.84828 -2.19099,17.23645 -2.70511,20 -3.0166,16.21517 -5.89527,26.99296 -10.0605,37.66667 -5.82931,14.93802 -17.22491,34.72886 -25.85385,44.90058 -4.49566,5.29945 -4.51117,4.63215 0.34523,14.85206 5.11864,10.77178 16.84654,29.20927 21.12527,33.21113 0.99173,0.92756 4.79175,3.52221 8.44451,5.76589 3.65275,2.24368 8.00275,5.15254 9.66666,6.46412 5.37659,4.23809 17.04443,16.3522 20.03977,20.80622 4.35186,6.47115 5.67955,7.63377 13.31886,11.6629 9.99373,5.2709 42.91021,21.45176 44.76974,22.0076 4.51895,1.35077 9.23026,3.91956 9.23026,5.03268 0,3.71124 -2.14183,4.16476 -8,1.69399 z M 307.0658,804.78617 c 13.33179,-6.00379 27.9276,-16.71506 37.44905,-27.48233 3.7804,-4.27504 3.89785,-5.84651 0.62278,-8.33209 -4.39035,-3.33199 -4.92705,-3.211 -10.84751,2.44537 -2.92194,2.7916 -5.6409,5.07564 -6.04214,5.07564 -1.17112,0 -0.55023,-0.88194 4.21491,-5.98706 4.37188,-4.68379 5.61807,-7.34627 3.43849,-7.34627 -0.58383,0 -1.82429,0.6 -2.75657,1.33333 -2.43931,1.91876 -3.15842,1.64095 -1.56065,-0.60291 0.7583,-1.06494 1.37873,-2.34656 1.37873,-2.84806 0,-0.50149 -2.54168,-3.44028 -5.64819,-6.53065 l -5.64819,-5.61885 -1.51847,1.35176 c -0.83517,0.74347 -2.56848,2.30219 -3.85181,3.46382 -1.28334,1.16163 -2.59507,2.11344 -2.91497,2.11514 -0.64504,0.003 -0.11741,-0.74705 4.0566,-5.76991 2.69195,-3.2394 2.85837,-3.68119 2.85837,-7.58795 0,-3.89063 0.14741,-4.28732 2.3734,-6.3867 1.46676,-1.38333 3.82245,-2.65537 6.16667,-3.32991 5.17315,-1.48856 8.11779,-3.06012 15.0272,-8.02003 3.24533,-2.32966 6.17033,-4.23575 6.5,-4.23575 1.42846,0 0.34706,1.4521 -3.06727,4.11873 -2.01667,1.57504 -3.66667,3.24266 -3.66667,3.70582 0,0.94164 5.19168,1.12773 11.23055,0.40256 3.30475,-0.39685 3.75609,-0.67514 6.20759,-3.82754 4.84709,-6.2329 4.83082,-6.21714 5.08813,-4.92806 0.12495,0.62599 -0.54234,2.27063 -1.48288,3.65475 -1.90775,2.80751 -2.20876,4.3566 -0.7368,3.79175 1.47653,-0.56659 9.06463,-14.51398 10.06514,-18.50033 0.31878,-1.2701 0.0682,-1.82545 -1.10765,-2.45474 -2.29762,-1.22965 -13.28825,-0.29565 -20.3493,1.72931 -11.2964,3.23958 -28.62153,12.83783 -38.89574,21.54854 -18.79111,15.93153 -28.20941,33.18751 -30.97913,56.75921 -1.42609,12.13681 -0.49274,16.57317 4.08292,19.40666 4.9726,3.07929 11.83926,2.70297 20.31341,-1.11325 z M 298.96289,765.418 c 0,-1.05814 4.89056,-8.22923 7.45082,-10.92524 3.3769,-3.55594 9.27989,-8.66667 10.01017,-8.66667 1.16157,0 0.29617,1.12677 -5.46106,7.11041 -3.1167,3.23928 -7.0917,7.53444 -8.83333,9.54481 -1.74163,2.01037 -3.1666,3.33188 -3.1666,2.93669 z m 57.33334,-40.42865 c 0,-0.55 0.45,-1.37346 0.99999,-1.82992 0.81331,-0.67498 1,-0.64323 1,0.17007 0,0.55 -0.45,1.37347 -1,1.82993 -0.8133,0.67498 -0.99999,0.64322 -0.99999,-0.17008 z m -14.93666,-3.24233 c 3.7913,-4.21646 16.26999,-11.38222 16.26999,-9.34287 0,0.60228 -16.17917,10.75528 -17.13894,10.75528 -0.22057,0 0.17045,-0.63559 0.86895,-1.41241 z m 19.60332,-7.57411 c 0,-0.5321 6.93244,-4.33384 7.91496,-4.34056 0.77551,-0.005 0.77551,0.16226 0,1.0994 -1.46273,1.76759 -7.91496,4.40976 -7.91496,3.24116 z m 85.66666,72.31964 c 14.09518,-1.86618 24.92984,-4.06259 26.56272,-5.38481 1.78122,-1.44235 1.28923,-2.06748 -5.0921,-6.47007 -7.30412,-5.03924 -13.37986,-8.01782 -30.13728,-14.77459 -8.43334,-3.40041 -15.70834,-6.48654 -16.16667,-6.85807 -1.42521,-1.1553 -0.91745,-1.89041 1,-1.44775 4.55742,1.05212 26.79221,10.37524 36,15.09492 5.59167,2.86614 10.16667,4.97243 10.16667,4.68063 0,-0.69898 -3.15009,-5.42739 -4.91965,-7.38459 -1.13027,-1.25012 -1.82204,-1.46471 -3.62906,-1.12571 -1.87548,0.35184 -2.91077,-0.023 -6.47238,-2.34349 -7.0225,-4.57533 -7.56466,-6.49987 -0.74719,-2.65233 3.48561,1.96716 4.67308,2.06235 4.00488,0.32107 -0.43064,-1.12224 -8.5432,-7.29467 -14.41277,-10.96594 -5.12888,-3.20799 -12.93801,-6.64079 -19.60901,-8.6199 -6.3903,-1.89583 -23.58806,-5.24855 -29.54815,-5.76044 -2.75,-0.23619 -5.75,-0.55845 -6.66667,-0.71613 -3.65606,-0.6289 -36.01404,-0.81866 -41.18064,-0.2415 -8.94739,0.99951 -17.08608,3.17078 -20.11815,5.36719 -2.31287,1.67544 -2.70121,2.30926 -2.70121,4.40875 0,4.09376 2.38185,7.85003 8.56519,13.50766 10.43708,9.54971 19.03289,15.10746 31.32931,20.25641 26.1606,10.95438 55.52609,14.84842 83.77216,11.10869 z m -21.13917,-7.61163 c -5.66545,-0.75881 -7.1927,-1.27851 -6.32045,-2.15075 0.43073,-0.43074 15.76345,0.85828 17.9693,1.51067 0.647,0.19136 1.00429,0.62632 0.79399,0.96658 -0.48552,0.7856 -5.03012,0.66635 -12.44284,-0.3265 z m 22.75587,0.005 c 0.53162,-0.64056 2.30878,-0.95401 5.58163,-0.98445 2.64092,-0.0246 6.07667,-0.23572 7.63501,-0.46924 2.24173,-0.33593 2.83333,-0.21981 2.83333,0.55614 0,1.09718 -5.04068,1.83733 -12.51276,1.83733 -3.63895,0 -4.19464,-0.14763 -3.53721,-0.93978 z m -12.28336,-3.08416 c -18.20391,-1.67204 -25.40978,-2.99814 -36.87024,-6.78523 -7.30805,-2.41493 -7.63333,-4.08662 -0.37741,-1.93966 10.46161,3.0955 25.73453,5.86045 35.81564,6.48393 3.35427,0.20745 6.84867,0.47734 7.76534,0.59975 0.91667,0.12241 3.90595,0.24724 6.64286,0.27739 4.25363,0.0469 4.83444,0.188 4,0.97205 -1.64611,1.54669 -3.84884,1.59752 -16.97619,0.39177 z m 18.24966,-4.57758 c -3.90555,-1.5277 -6.70702,-3.39809 -5.08968,-3.39809 1.5474,0 7.96839,2.45224 9.54656,3.64593 1.27584,0.96501 1.2753,0.9782 -0.0399,0.96835 -0.73333,-0.005 -2.72098,-0.55277 -4.417,-1.21619 z M 428.29622,760.8728 c -6.9002,-2.50017 -10.55454,-4.27857 -8.90355,-4.33295 2.20187,-0.0725 10.2591,2.57576 13.23688,4.35075 3.51103,2.09285 1.46868,2.08446 -4.33333,-0.0178 z m -37.95139,-15.79365 c -7.43745,-1.56086 -9.64058,-2.53597 -5.7978,-2.56612 2.97093,-0.0233 14.43706,2.50103 15.38253,3.38655 1.00474,0.94104 -2.70408,0.62357 -9.58473,-0.82043 z m 33.95139,-10.66374 c 0,-0.77587 -1.05,-2.84107 -2.33333,-4.58932 -1.28333,-1.74825 -2.33333,-3.41482 -2.33333,-3.70349 0,-0.28867 -0.43976,-1.01077 -0.97723,-1.60467 -1.6683,-1.84345 -5.2897,-8.75182 -12.06992,-23.02517 -2.09875,-4.41819 -3.59735,-6.04428 -10.04807,-10.90295 -16.4681,-12.40375 -24.98639,-31.828 -24.97217,-56.94404 0.003,-5.41584 0.18719,-10.14084 0.40916,-10.5 0.72227,-1.16866 -1.44859,-0.6958 -7.62306,1.66046 -7.72341,2.94737 -15.54491,5.34963 -26.03855,7.99738 l -8.31984,2.09925 -0.44999,2.62829 c -0.2475,1.44555 -0.80718,5.23672 -1.24374,8.42481 -0.92711,6.77048 -1.37466,5.7876 6.57256,14.43433 3.04256,3.31036 6.13044,6.71265 6.86197,7.56065 2.62497,3.04293 9.58047,10.79394 10.31441,11.4941 4.86674,4.6427 10.61693,10.00621 13.58594,12.67233 7.04257,6.32409 13.75035,12.6763 25.02148,23.69512 10.79131,10.54974 16.85035,15.45033 21.31038,17.23597 1.58205,0.6334 9.23683,2.38968 11.83333,2.71499 0.275,0.0345 0.5,-0.57216 0.5,-1.34804 z m -134.9125,-0.2256 c 12.21389,-0.62176 18.81163,-2.78592 25.39064,-8.32849 4.57483,-3.85412 4.05649,-4.23895 -4.97813,-3.69599 -4.30834,0.25892 -8.73334,0.58588 -9.83334,0.72656 -2.90195,0.37116 -7.88834,-0.44412 -7.16154,-1.17092 0.69463,-0.69463 3.52425,-1.01211 13.82821,-1.55151 9.2097,-0.48211 18.47852,-2.04824 21.60116,-3.64988 1.31936,-0.67672 3.12613,-2.00959 4.01505,-2.96194 l 1.61621,-1.73155 -6.28288,-0.0102 c -3.45558,-0.006 -6.73287,-0.30102 -7.28287,-0.65645 -0.72701,-0.46983 -0.1756,-0.64904 2.0199,-0.65646 4.06187,-0.0137 18.15166,-1.78595 24.14006,-3.03634 6.87295,-1.43508 15.84003,-4.24066 15.84003,-4.95596 0,-0.99572 -0.8277,-1.27003 -10.10753,-3.34977 -4.89086,-1.09611 -9.56746,-2.15056 -10.39246,-2.34323 -0.825,-0.19267 -1.5,-0.68603 -1.5,-1.09634 0,-1.17951 7.55397,-0.14487 17.81798,2.44044 5.00929,1.26175 9.21747,2.18442 9.35151,2.05038 0.13404,-0.13404 -0.89926,-1.19745 -2.29622,-2.36314 -9.15686,-7.64084 -39.26658,-14.14561 -65.87327,-14.23097 -19.18848,-0.0616 -34.96485,2.6474 -51.33333,8.81441 -7.94798,2.99448 -13.2218,5.82751 -19.85638,10.66657 -7.75723,5.65788 -9.1871,8.74809 -6.49213,14.03066 4.92684,9.65741 20.95833,15.81412 45.01517,17.28756 7.48084,0.45819 9.72706,0.43574 22.75416,-0.22743 z m -20.08749,-12.68185 -3.33333,-0.85681 4.33333,-0.0734 c 5.50621,-0.0933 11.33333,0.59632 11.33333,1.3412 0,0.85554 -8.50917,0.57198 -12.33333,-0.41099 z m 29.66666,-3.57904 c -3.53297,-0.68835 -1.08469,-1.33559 5.44357,-1.43909 6.92786,-0.10984 7.11641,-0.0893 5.87144,0.63998 -1.43484,0.84049 -8.53059,1.34161 -11.31501,0.79911 z m 40.66667,-15.80446 c -0.55,-0.1175 -2.5,-0.42871 -4.33333,-0.69158 l -3.33334,-0.47794 2.33334,-0.53088 c 3.78196,-0.86046 13.33333,0.15299 13.33333,1.41473 0,0.59644 -5.60793,0.79669 -8,0.28567 z m -40.8379,-8.39379 c 0.91253,-0.91254 11.74304,-1.51049 17.0551,-0.94162 7.94653,0.85101 4.15232,1.7538 -7.01252,1.66856 -6.88988,-0.0526 -10.4586,-0.31093 -10.04258,-0.72694 z m 97.20726,35.37046 c 0.46153,-0.74677 -11.06071,-12.52776 -13.56171,-13.86625 -1.31107,-0.70166 -1.50713,-0.37713 -3.56504,5.90127 -1.19772,3.65407 -1.94301,6.87916 -1.6562,7.16686 1.19227,1.19595 18.09323,1.9141 18.78295,0.79812 z m -25.54666,-2.55755 c 0.49406,-0.70538 1.48608,-1.23038 2.20447,-1.16666 3.12295,0.27697 7.18949,-14.10119 4.59678,-16.25295 -0.73673,-0.61143 -1.14317,-0.19245 -2.07349,2.13748 -0.63643,1.59389 -2.59564,5.84191 -4.3538,9.44006 -1.75816,3.59814 -3.19666,6.67314 -3.19666,6.83333 0,0.83632 2.04583,0.11788 2.8227,-0.99126 z m 38.96966,-37.85197 c 1.30476,-2.82397 4.57971,-11.24073 7.27768,-18.70393 4.86809,-13.46623 6.2032,-16.66548 6.24302,-14.95986 0.0572,2.45069 -2.56817,11.52523 -6.07873,21.01094 -2.16569,5.85179 -3.76499,10.81224 -3.554,11.02323 1.33695,1.33694 7.77052,-7.66514 15.66193,-21.91474 11.32998,-20.45865 18.31036,-44.6014 21.34009,-73.80812 0.86037,-8.29398 1.60021,-22.84637 1.16151,-22.84637 -0.19452,0 -1.51396,1.12837 -2.9321,2.50749 -1.41814,1.37911 -5.00674,4.76177 -7.97468,7.51702 l -5.39624,5.00953 -0.45904,6.31631 c -0.42699,5.87518 -1.43766,11.84282 -1.74716,10.31632 -0.21128,-1.04211 0.0714,-12.31316 0.34432,-13.73055 0.31644,-1.64311 -0.49246,-1.61552 -2.01675,0.0688 -2.23555,2.47025 -17.46909,13.55749 -24.76774,18.02639 l -7.22781,4.42552 -0.8907,7.93825 c -1.305,11.63058 -1.25324,30.96629 0.1078,40.27159 1.93179,13.20742 1.92261,12.76336 0.17224,8.33255 -0.86927,-2.20044 -1.79308,-5.95044 -2.05291,-8.33334 -0.25983,-2.3829 -0.61641,-4.56868 -0.7924,-4.85729 -0.49761,-0.81606 -0.42333,-23.62382 0.0927,-28.47526 0.25353,-2.38333 0.88424,-6.41306 1.40159,-8.95495 0.51734,-2.54189 0.82868,-4.73357 0.69185,-4.8704 -0.13683,-0.13683 -3.8071,1.54034 -8.15616,3.72704 -4.34906,2.18669 -9.57943,4.71345 -11.62304,5.615 l -3.71566,1.63919 -0.22965,3.92206 c -1.09545,18.70828 1.3776,32.54016 8.23885,46.08018 1.82611,3.60366 6.32355,9.49081 10.37382,13.57936 3.60856,3.64266 11.40734,9.26252 12.85376,9.26252 0.9477,0 1.89895,-1.33682 3.65357,-5.13448 z m -8.28991,-3.40452 c -2.21184,-3.05335 -6.19832,-13.24904 -6.124,-15.66251 0.043,-1.39686 0.0788,-1.38746 0.76719,0.20151 0.39714,0.91667 2.3447,5.06306 4.32792,9.21421 3.89263,8.1478 4.33012,10.80401 1.02889,6.24679 z m 3.20742,-6.33008 c -1.95868,-5.93484 -2.92974,-21.29379 -1.73641,-27.46425 0.14182,-0.73333 0.28081,-1.90833 0.30886,-2.61111 0.0281,-0.70278 0.21634,-1.11245 0.41841,-0.91037 0.20208,0.20207 0.48908,4.37707 0.63779,9.27777 0.24462,8.06155 0.85562,14.3794 2.07059,21.41038 0.54504,3.15407 -0.6854,3.36955 -1.69924,0.29758 z m 7.29013,-8.29546 c 0,-0.31711 0.66831,-2.50981 1.48513,-4.87268 1.11508,-3.22563 1.54474,-3.90088 1.72433,-2.70993 0.25441,1.68712 -1.5658,7.14334 -2.5953,7.7796 -0.33779,0.20877 -0.61416,0.12012 -0.61416,-0.19699 z m 11.99999,-3.82126 c 0,-0.5422 1.32099,-5.1172 2.93552,-10.16667 1.61454,-5.04947 3.75955,-13.00586 4.7667,-17.68086 1.90445,-8.84007 3.26619,-11.30368 2.57947,-4.66667 -0.39353,3.80328 -3.74691,18.96815 -4.90169,22.16667 -3.13103,8.67238 -4.25136,11.33333 -4.77161,11.33333 -0.33461,0 -0.60839,-0.44361 -0.60839,-0.9858 z m -32.21633,-16.9162 c -0.56528,-1.41277 -0.92081,-3.13777 -0.79006,-3.83334 0.13074,-0.69556 0.26067,-1.83966 0.28872,-2.54243 0.0776,-1.94493 0.85571,-0.72918 1.12062,1.75099 0.12886,1.2064 0.38209,3.31845 0.56273,4.69345 0.41743,3.17728 0.1096,3.1594 -1.18201,-0.0687 z m 35.82533,-18.86133 c 1.38186,-8.52973 2.54028,-14.09237 3.39843,-16.31894 l 0.99606,-2.58439 -0.35966,4.66666 c -0.52277,6.78304 -2.49537,15.85318 -3.5205,16.18747 -0.65174,0.21252 -0.7837,-0.28801 -0.51433,-1.9508 z m 5.75817,-1.90333 c -0.016,-1.19079 1.09353,-3.09486 1.54203,-2.64636 0.17327,0.17327 -0.0998,1.06458 -0.60679,1.98069 -0.53443,0.96567 -0.92746,1.24542 -0.93524,0.66567 z m -138.70114,34.29356 c 8.21069,-1.0235 15.59103,-3.03717 20.71797,-5.65274 4.43801,-2.26411 3.3753,-2.88728 -3.88399,-2.27755 -8.20267,0.68896 -16.8907,0.5127 -17.76378,-0.36039 -0.44829,-0.44829 0.0905,-0.67314 1.63045,-0.6804 5.07451,-0.0239 17.38367,-1.29403 19.92748,-2.05618 2.2772,-0.68226 2.70585,-1.09008 2.70585,-2.57438 0,-2.04425 -2.35277,-4.45612 -8.41192,-8.62321 -3.24844,-2.23408 -4.44007,-2.71427 -5.85461,-2.35924 -1.64262,0.41227 -1.68687,0.51094 -0.58913,1.31363 1.83462,1.34151 0.46992,1.95948 -2.31157,1.04674 -1.37469,-0.4511 -3.24944,-1.05776 -4.1661,-1.34815 -0.91667,-0.29038 -2.21383,-0.33486 -2.88257,-0.0988 -0.87543,0.30897 0.058,0.87034 3.33333,2.00471 6.19764,2.14648 13.17451,5.30272 12.72198,5.75525 -0.20405,0.20405 -6.0464,-1.4486 -12.98298,-3.67257 -12.09545,-3.87798 -12.89682,-4.04384 -19.56753,-4.04999 -25.38039,-0.0234 -53.27504,-7.26497 -73.94241,-19.19571 l -6.32018,-3.64848 -3.01315,1.59197 c -2.52641,1.3348 -3.04736,1.94812 -3.2249,3.79669 -0.30356,3.16074 2.82326,7.67671 9.97992,14.4137 23.69857,22.30883 55.78971,31.4255 93.89784,26.67514 z m -30.33268,-11.6146 c -1.1,-0.28484 -3.05,-1.01952 -4.33334,-1.63262 l -2.33333,-1.11473 3.47434,0.33308 c 4.39544,0.42138 8.92297,1.75911 8.46448,2.50096 -0.41375,0.66946 -2.48346,0.63543 -5.27215,-0.0867 z m 15.33333,-1.80552 c -9.56184,-1.24361 -26.12334,-5.59495 -36,-9.45858 -4.92042,-1.9248 -9.42733,-4.24668 -6,-3.09108 16.20423,5.46361 23.82292,7.30894 42.66667,10.33433 6.96666,1.1185 12.96666,2.15432 13.33333,2.3018 0.84169,0.33856 -11.3091,0.2635 -14,-0.0865 z m 47.37733,-8.21171 c 0.39087,-3.11395 0.61444,-5.8604 0.49682,-6.10323 -0.11762,-0.24282 -1.03742,-0.2222 -2.04401,0.0458 -1.75988,0.4686 -1.83774,0.67513 -2.02812,5.37911 -0.22922,5.66381 0.0815,6.86601 1.69596,6.56091 0.93413,-0.17654 1.31132,-1.35718 1.87935,-5.88261 z m -5.71067,-2.37728 c 0,-2.54396 -0.19321,-3.01206 -1.16666,-2.82653 -1.41059,0.26885 -1.85671,2.62989 -0.85174,4.50769 1.20108,2.24424 2.0184,1.56348 2.0184,-1.68116 z m -34.27822,-10.72422 c -5.42808,-2.93901 -21.56843,-7.89317 -32.21837,-9.8892 -10.79184,-2.02262 -36.83673,-4.49586 -36.83673,-3.49804 0,0.71506 15.08247,6.72523 21.5481,8.58665 13.42102,3.86384 26.30041,5.67748 41.11856,5.79023 7.95278,0.0605 8.24452,0.0153 6.38844,-0.98964 z m 12.94489,-0.2269 c 0,-0.36667 -0.3,-0.66667 -0.66667,-0.66667 -0.36666,0 -0.66666,0.3 -0.66666,0.66667 0,0.36667 0.3,0.66667 0.66666,0.66667 0.36667,0 0.66667,-0.3 0.66667,-0.66667 z m 9.88321,-0.58038 c 0.67378,-0.42718 0.77192,-1.68942 0.41386,-5.32312 -0.33221,-3.37145 -0.24939,-4.76317 0.28346,-4.76317 0.41404,0 0.77747,0.375 0.80762,0.83334 0.0302,0.45833 0.17904,1.58333 0.33085,2.5 0.15182,0.91666 0.36614,2.71666 0.47627,4 0.21666,2.52465 0.49062,2.59557 6.30473,1.63199 2.15884,-0.35778 2.16667,-0.37328 2.16667,-4.28952 0,-4.0504 0.87539,-5.80382 1.58177,-3.16831 0.22001,0.82088 0.40412,2.6175 0.40912,3.9925 0.01,2.74087 0.92806,3.13148 4.32477,1.84005 l 1.7358,-0.65995 -0.35357,-11.84005 c -0.3969,-13.29123 -0.6738,-16.58688 -2.11507,-25.17338 -2.31133,-13.76992 -4.40079,-18.61149 -8.24949,-19.1152 -1.55159,-0.20307 -1.6807,5.2e-4 -1.86986,2.94853 -0.11176,1.74167 -0.48676,3.16667 -0.83333,3.16667 -0.34658,0 -0.63014,-0.28875 -0.63014,-0.64166 0,-0.35291 -0.62547,-2.31336 -1.38993,-4.35656 l -1.38992,-3.71491 -7.97397,-3.99722 c -4.38568,-2.19848 -8.26955,-3.81455 -8.63081,-3.59128 -0.41301,0.25525 -0.48002,2.92334 -0.18052,7.18713 0.85006,12.10185 0.4753,21.50044 -1.16073,29.10955 -0.72701,3.38129 -0.52327,12.92216 0.36968,17.31186 0.36092,1.77424 3.39994,5.20491 4.04197,4.56287 0.21606,-0.21606 -0.0748,-2.85829 -0.64646,-5.87162 -0.57162,-3.01333 -1.02246,-6.72064 -1.00187,-8.23847 l 0.0374,-2.75969 1.20431,4 c 0.66237,2.2 1.73132,5.95 2.37544,8.33333 3.91433,14.48359 6.15204,18.24817 9.5619,16.08629 z m 5.87725,-9.25295 c -0.18116,-0.64167 -0.52271,-4.31667 -0.75901,-8.16667 -0.23629,-3.85 -0.87356,-10.45 -1.41616,-14.66667 -1.69184,-13.14776 -1.85647,-15.76587 -0.93711,-14.90237 1.6183,1.51996 3.52824,14.8335 4.4093,30.73571 0.31115,5.61588 0.2307,8.16666 -0.25758,8.16666 -0.39053,0 -0.85827,-0.525 -1.03944,-1.16666 z m 3.40621,-23.88116 c -0.275,-0.27925 -0.5,-1.26773 -0.5,-2.19662 0,-1.21381 0.2034,-1.48548 0.72311,-0.96578 0.39771,0.39771 0.62271,1.38619 0.5,2.19662 -0.12271,0.81043 -0.44811,1.24504 -0.72311,0.96578 z m -7.38889,-15.39662 c -0.24445,-0.24445 -0.44445,-1.34445 -0.44445,-2.44445 0,-2.52044 0.58686,-2.02025 0.91265,0.77788 0.26134,2.24454 0.2281,2.36287 -0.4682,1.66657 z m -17.42792,45.96476 c -0.25585,-1.36383 -1.21464,-3.75854 -2.13065,-5.32158 -1.83824,-3.13672 -5.70392,-6.74461 -6.06521,-5.66074 -0.5202,1.56062 6.81597,13.462 8.29816,13.462 0.19959,0 0.15356,-1.11585 -0.1023,-2.47968 z m -6.83119,-1.36614 c -0.0814,-0.75103 -0.99906,-2.81796 -2.03925,-4.59318 -1.04019,-1.77521 -2.72603,-5.32766 -3.74631,-7.89433 -1.02028,-2.56667 -2.18632,-5.06814 -2.5912,-5.55883 -0.40488,-0.49068 -3.30244,-2.18998 -6.43903,-3.77621 -10.45489,-5.28725 -18.80132,-12.12842 -26.43188,-21.66496 -6.13888,-7.67227 -9.69581,-13.85053 -15.27707,-26.5357 -1.66224,-3.77796 -3.80536,-8.05239 -4.7625,-9.49872 l -1.74025,-2.62969 -3.74559,2.10881 c -18.4846,10.40707 -30.74558,25.12215 -30.74558,36.89946 0,9.00203 7.76391,20.70916 19,28.64993 l 4,2.82688 9.66666,0.41665 c 21.15235,0.9117 38.4334,3.98484 54.66667,9.72152 4.95,1.74928 9.3,3.11602 9.66666,3.0372 0.36667,-0.0788 0.60007,-0.7578 0.51867,-1.50883 z m 52.88928,-2.11251 c 5.09229,-1.44374 11.35872,-3.40613 13.92538,-4.36085 6.32993,-2.35454 17.66667,-7.10424 17.66667,-7.40172 0,-0.47008 -7.46393,-19.9773 -8.39698,-21.94576 -1.16737,-2.46281 -13.67194,-9.58698 -20.26969,-11.54814 -4.92346,-1.46349 -12.77377,-3.46142 -15.5,-3.9448 -2.20372,-0.39074 -2.31865,0.44785 -0.85959,6.27243 2.23028,8.90336 3.60693,22.47351 3.65753,36.05384 0.0195,5.225 0.14397,9.5 0.27668,9.5 0.13271,0 4.40771,-1.18125 9.5,-2.625 z M 380.2727,605.8381 c 4.99662,-2.54909 18.31061,-10.82213 24.63589,-15.30824 12.90181,-9.15041 27.29462,-22.07634 38.75222,-34.80269 l 5.19079,-5.76559 -0.62108,-2.90108 c -0.92954,-4.34189 -5.50029,-13.22029 -8.6456,-16.79355 -4.35875,-4.9518 -8.96845,-6.26792 -13.85461,-3.95564 -1.33875,0.63353 -5.29134,4.00853 -8.78353,7.5 -18.31134,18.30752 -33.37351,45.08895 -38.90841,69.18145 -0.52648,2.29167 -0.82188,4.16667 -0.65646,4.16667 0.16542,0 1.46627,-0.5946 2.89079,-1.32133 z m -92.39914,-3.51201 c 0.3954,-2.18325 0.25546,-4.40192 -0.89355,-14.16666 -1.3129,-11.15764 -1.49154,-14.33334 -0.80627,-14.33334 0.78516,0 1.70586,3.9631 2.78781,12 0.73353,5.44881 1.47317,7.41707 2.42829,6.46195 2.19961,-2.19962 1.80996,-32.94892 -0.47155,-37.21196 -0.93796,-1.7526 -2.62999,-1.58908 -2.58699,0.25001 0.0193,0.825 0.4387,3.75 0.93203,6.5 0.49333,2.75 0.75985,5.225 0.59225,5.5 -0.71512,1.17344 -1.52814,0.32706 -1.92117,-2 -1.71348,-10.14517 -3.50764,-15.83231 -5.72755,-18.15524 -2.20626,-2.30864 -5.14901,-4.3286 -5.61996,-3.85765 -0.18391,0.18391 0.27391,3.14955 1.01739,6.59031 1.92971,8.9306 3.96445,20.10876 4.71864,25.92258 0.35674,2.75 0.82408,6.29535 1.03855,7.87854 0.21446,1.5832 0.18904,3.67896 -0.0565,4.65725 -0.71234,2.83816 -1.45475,0.6319 -2.31148,-6.86912 -0.81852,-7.16657 -3.72871,-24.72197 -4.6416,-28 -0.30634,-1.1 -1.24648,-4.92287 -2.08922,-8.49528 -0.84273,-3.5724 -2.15494,-7.52908 -2.91602,-8.79263 -2.39123,-3.96996 -7.35262,-10.30164 -8.10303,-10.34101 -0.39559,-0.0208 -3.99559,1.13759 -8,2.57411 -6.42657,2.30543 -7.26077,2.78228 -7.11051,4.06451 0.29725,2.53647 7.88052,22.04893 11.42439,29.39601 1.87624,3.8898 4.76001,9.12573 6.40837,11.6354 1.64835,2.50967 2.99701,4.94268 2.99701,5.4067 0,1.85458 -1.87515,-0.0831 -5.12509,-5.29594 -6.08843,-9.76573 -10.44269,-19.28504 -15.01164,-32.81854 -1.48546,-4.4 -2.9035,-8.22612 -3.15122,-8.50249 -0.24771,-0.27638 -0.9782,-0.11655 -1.62331,0.35517 -1.2199,0.89201 -1.13627,1.40182 2.08937,12.73658 0.24114,0.84737 0.0703,1.16021 -0.52525,0.9617 -0.48546,-0.16182 -1.73782,-3.04516 -2.78303,-6.40743 l -1.90037,-6.11321 -3.48473,1.56169 c -7.79098,3.49155 -8.48473,3.94112 -8.48473,5.49839 0,3.93796 7.58076,21.37758 13.00129,29.9096 6.82667,10.74533 17.58165,21.49396 27.612,27.5957 5.06806,3.08304 12.60617,6.03048 15.47918,6.05243 2.21708,0.0169 2.45957,-0.16789 2.81819,-2.14813 z m -8.08557,-5.85715 c -5.07928,-2.04073 -13.87791,-10.48338 -19.24401,-18.46541 -2.0594,-3.06334 -3.59819,-5.71588 -3.41954,-5.89454 0.41049,-0.41049 2.03212,1.35559 7.39194,8.05044 4.23693,5.29227 10.63182,11.71585 15.11318,15.181 2.49672,1.93055 2.51717,2.07619 0.15843,1.12851 z m -5.14833,-26.78225 c -0.19927,-0.83999 -0.6229,-2.87726 -0.94139,-4.52726 -1.30551,-6.76334 -3.56092,-16.55025 -4.57267,-19.84215 -0.76953,-2.50377 -0.87301,-3.71421 -0.3613,-4.22592 1.39698,-1.39699 5.46641,14.35929 7.04157,27.26409 0.30965,2.53684 -0.62664,3.60563 -1.16621,1.33124 z m 7.41133,-11.27046 c -0.54313,-0.77543 -0.81189,-1.86752 -0.59725,-2.42687 0.33405,-0.87052 0.51885,-0.84114 1.28304,0.20395 0.8384,1.14659 1.24715,3.63278 0.59725,3.63278 -0.16254,0 -0.73991,-0.63444 -1.28304,-1.40986 z m 95.65399,36.3576 c 3.56461,-12.17011 9.07033,-23.81172 18.01532,-38.0926 6.1839,-9.87276 10.72868,-15.69387 18.53405,-23.73906 12.20564,-12.58065 18.77409,-13.5734 27.20686,-4.11205 3.2127,3.60457 7.64814,11.60009 8.56868,15.44629 0.70584,2.94914 0.87961,2.99183 2.86447,0.70367 2.58403,-2.97888 12.48122,-16.44115 16.53224,-22.48732 7.81447,-11.66316 20.86962,-35.56392 20.86962,-38.20714 0,-2.47981 -1.66978,-2.71244 -11.32162,-1.57732 -16.97647,1.99654 -96.00562,14.26196 -96.78713,15.02148 -0.24315,0.23631 -0.61007,9.42965 -0.81537,20.42965 -0.20531,11 -0.50892,20.75 -0.67471,21.66666 -0.16578,0.91667 -0.49207,3.46667 -0.72507,5.66667 -1.1347,10.71358 -4.40861,23.16466 -8.07402,30.70644 -1.95902,4.0308 -2.93382,6.91354 -2.93065,8.66666 0.004,2.1111 3.6893,13.51384 5.11161,15.81519 0.87788,1.42043 2.02858,-0.45436 3.62572,-5.90722 z m -16.7429,-13.44774 c -4.5e-4,-0.275 -0.67545,-1.27892 -1.5,-2.23095 -0.82455,-0.95202 -2.99919,-3.4591 -4.83252,-5.57129 -5.8618,-6.75338 -4.61132,-6.91192 2.13648,-0.27087 3.5916,3.53478 7.17368,6.75348 7.96018,7.15265 1.72589,0.87596 1.988,0.6048 4.74908,-4.91287 4.966,-9.92397 8.48849,-28.18178 9.0475,-46.89525 l 0.2259,-7.56191 -1.94002,0.388 c -2.94376,0.58875 -5.6518,-1.12468 -6.4777,-4.09857 -0.38169,-1.37442 -0.69566,-5.89777 -0.6977,-10.05191 l -0.004,-7.55297 -2.16667,0.46418 c -1.19167,0.2553 -2.21574,0.50414 -2.27572,0.55297 -0.06,0.0488 0.30526,3.38879 0.81165,7.42213 1.11372,8.87072 1.2455,15.91928 0.28653,15.32661 -0.37265,-0.23031 -0.54512,-0.63301 -0.38326,-0.8949 0.16185,-0.26189 -0.10714,-2.58288 -0.59776,-5.15777 -0.49062,-2.57489 -1.04559,-6.01489 -1.23326,-7.64444 -0.62482,-5.4254 -1.27354,-8.6295 -1.74717,-8.6295 -1.06233,0 -23.9571,4.76976 -36.54335,7.61322 -7.43363,1.6794 -13.67222,3.05344 -13.86354,3.05344 -0.76348,0 0.73172,5.45137 3.83992,14 3.63682,10.00254 6.2063,15.61766 9.99631,21.84508 1.39864,2.29812 2.54299,4.31172 2.54299,4.47467 0,0.16294 1.82937,2.93266 4.06527,6.15492 6.62388,9.546 14.91752,17.29668 22.93473,21.43326 3.9997,2.0637 5.66738,2.53231 5.66585,1.59207 z m 4.93324,-6.43569 c -0.23776,-0.6196 -0.25194,-3.58754 -0.0315,-6.59542 0.22043,-3.00789 0.59492,-9.21889 0.8322,-13.80222 0.23728,-4.58333 0.52372,-9.08333 0.63655,-10 0.11282,-0.91667 0.2258,-1.90937 0.25106,-2.20601 0.0253,-0.29664 0.32829,-0.36484 0.67339,-0.15156 1.40014,0.86533 0.002,31.95075 -1.50528,33.45762 -0.23326,0.23326 -0.61865,-0.0828 -0.85641,-0.70241 z m -11.12796,-10.23097 c -5.78528,-7.93388 -11.82722,-19.18789 -15.17282,-28.26164 -2.02582,-5.49432 -4.65014,-15.56017 -4.60496,-17.66281 0.046,-2.14033 1.77626,1.71365 3.26723,7.27737 0.74357,2.77472 1.98164,6.64292 2.75126,8.59601 1.67627,4.2539 9.49316,20.15987 11.12907,22.64565 2.89009,4.39153 6.15908,9.78367 6.15908,10.15929 0,1.20941 -1.4825,0.0525 -3.52886,-2.75387 z m 5.04797,-2.44599 c -2.32788,-1.95878 -6.8484,-10.62092 -4.92114,-9.42981 0.68154,0.42122 7.51633,11.04246 7.10584,11.04246 -0.14749,0 -1.13061,-0.72569 -2.1847,-1.61265 z m -18.80531,-9.09475 c -2.06026,-2.84411 -3.69461,-7.38064 -3.18552,-8.84215 0.15017,-0.43108 1.54743,1.86153 3.10503,5.09468 1.5576,3.23315 2.6744,6.03606 2.48178,6.22868 -0.19262,0.19262 -1.2732,-0.92393 -2.40129,-2.48121 z m 20.36498,0.2074 c -0.19828,-1.00833 -0.544,-5.43333 -0.76827,-9.83333 -0.22427,-4.4 -0.5163,-9.05 -0.64894,-10.33333 -0.13265,-1.28334 -0.43296,-5.78334 -0.66737,-10 -0.2344,-4.21667 -0.58613,-8.22924 -0.78161,-8.91682 -0.49201,-1.73055 1.03784,-0.72407 1.74532,1.14824 0.29828,0.78939 0.75661,4.13524 1.01851,7.43524 0.2619,3.3 0.60753,6.9 0.76807,8 0.76166,5.21864 1.08073,24.33334 0.40618,24.33334 -0.39126,0 -0.87362,-0.825 -1.07189,-1.83334 z m 10.70317,-2.16666 c -0.64741,-1.45096 -0.99554,-27.46849 -0.38833,-29.02183 0.28197,-0.72133 0.55671,-1.01151 0.61053,-0.64484 0.0538,0.36667 0.23873,1.26667 0.4109,2 0.17216,0.73333 0.41519,6.43333 0.54005,12.66667 0.22242,11.10335 -0.24502,17.0801 -1.17315,15 z m -4.6213,-16.22119 c -0.27169,-0.67166 -0.48486,-1.87166 -0.47371,-2.66667 0.0185,-1.31732 0.0815,-1.34034 0.71053,-0.25964 0.37963,0.65221 0.5928,1.85221 0.4737,2.66667 -0.19497,1.33333 -0.26574,1.35919 -0.71052,0.25964 z m -33.16064,-19.48482 c 0,-0.57164 0.3,-0.85394 0.66666,-0.62733 0.36667,0.22662 0.66667,0.69432 0.66667,1.03935 0,0.34503 -0.3,0.62732 -0.66667,0.62732 -0.36666,0 -0.66666,-0.46771 -0.66666,-1.03934 z m 5.0178,57.01053 c 1.11621,-1.80607 -6.61577,-9.41841 -12.63522,-12.43972 -5.50369,-2.76244 -14.58133,-9.15533 -17.22106,-12.12787 -2.44194,-2.74982 -1.68095,-2.61199 2.44456,0.44276 5.61996,4.1613 13.38506,8.82031 14.70069,8.82031 0.80649,0 0.25248,-1.89912 -1.65596,-5.6766 -2.69071,-5.32586 -2.86469,-5.59426 -7.30074,-11.26264 -1.35878,-1.73625 -1.90343,-3.0342 -1.63204,-3.88928 0.50605,-1.5944 -4.09244,-14.27399 -5.91579,-16.31184 -1.00422,-1.12237 -1.22593,-2.04454 -0.93,-3.86818 0.28532,-1.75819 0.12789,-2.49451 -0.59244,-2.77092 -0.99953,-0.38356 -11.51508,2.03968 -19.94647,4.59653 -2.56666,0.77836 -4.96666,1.47659 -5.33333,1.55164 -1.05681,0.21631 -10.3493,2.94341 -13.86747,4.06973 l -3.20081,1.02472 1.14431,1.76842 c 2.49879,3.86163 9.5506,12.05042 14.92397,17.33019 11.03673,10.84447 25.85577,19.04744 49.66666,27.49262 5.96236,2.11471 6.73554,2.2462 7.35114,1.25013 z m -31.08811,-30.82676 c -4.25533,-3.01646 -9.50533,-6.97939 -11.66666,-8.8065 -6.4173,-5.42495 -13.36936,-13.0046 -11.92784,-13.0046 0.21016,0 3.44572,2.73194 7.19012,6.07098 3.74441,3.33903 10.40802,8.74708 14.80802,12.01787 11.83986,8.80131 12.26743,9.16968 10.66667,9.1899 -0.73334,0.009 -4.81497,-2.45118 -9.07031,-5.46765 z m -131.38459,-6.15004 c 6.41422,-0.90028 11.29355,-1.88223 24.40506,-4.91144 1.07259,-0.24781 2.06348,-0.79052 2.20198,-1.20603 0.34012,-1.02036 -1.98682,-1.39051 -11.8188,-1.88002 -20.1534,-1.00338 -32.63599,-2.66257 -33.76413,-4.48792 -0.47005,-0.76057 -0.40816,-0.75609 16.09746,1.16477 11.321,1.31749 33.65664,1.99136 35,1.05595 1.6285,-1.13395 -2.17801,-7.55294 -8.22347,-13.86738 -6.56002,-6.85189 -14.58867,-12.38281 -25.94168,-17.87116 -14.97475,-7.23919 -26.00244,-10.20711 -43.50151,-11.70768 -18.5384,-1.5897 -51.000105,0.80617 -58.666675,4.32997 -7.63267,3.50821 -8.68153,6.69723 -4.48523,13.63717 3.19856,5.28984 7.70929,9.85482 14.59775,14.77327 18.787025,13.4142 37.854955,20.04588 63.887485,22.21958 5.69702,0.4757 23.02855,-0.24086 30.21176,-1.24908 z m -10.21176,-4.40401 c -23.78591,-2.92712 -43.53732,-8.47199 -50.66667,-14.22378 -1.18334,-0.95469 -1.03335,-0.94962 1.33334,0.0451 12.71038,5.34213 28.18656,9.33219 44.99999,11.60188 14.75219,1.99144 14.7433,1.98977 14.31252,2.68678 -0.45267,0.73244 -3.39746,0.69999 -9.97918,-0.10997 z m 33.28911,-12.67892 c -3.64235,-2.20873 -10.17921,-5.81061 -14.52637,-8.00419 -4.34715,-2.19357 -7.77317,-4.11906 -7.61337,-4.27886 0.59185,-0.59185 7.02176,1.74701 12.51729,4.55314 7.10144,3.62613 17.33334,9.85314 17.33334,10.54886 0,1.45829 -1.65549,0.85308 -7.71089,-2.81895 z m -16.12965,2.62401 c -4.68082,-0.85345 -3.83514,-2.07126 1.07125,-1.54263 8.58217,0.92467 9.72695,1.10494 10.7249,1.68886 1.39089,0.81383 -7.10848,0.70847 -11.79615,-0.14623 z m -54.32613,-3.58345 c -1.00833,-0.54703 -1.83333,-1.15886 -1.83333,-1.35962 0,-0.55375 4.112,0.44673 6,1.45986 l 1.66667,0.89436 h -2 c -1.1,0 -2.825,-0.44757 -3.83334,-0.9946 z m 51.16667,-14.36958 c -7.08936,-2.85386 -8.95212,-3.94369 -5.88388,-3.44244 3.92945,0.64195 9.96039,2.92847 11.88388,4.50556 2.72436,2.23374 1.76954,2.06456 -6,-1.06312 z m -19,-3.22818 c 0,-0.35516 0.45,-0.47307 1,-0.26201 0.55,0.21105 1,0.50164 1,0.64574 0,0.14411 -0.45,0.26201 -1,0.26201 -0.55,0 -1,-0.29058 -1,-0.64574 z m -8.19918,-1.77566 c -0.94152,-0.94152 -0.42869,-1.66583 1.03251,-1.4583 0.825,0.11717 1.5,0.50892 1.5,0.87057 0,0.80028 -1.88297,1.23727 -2.53251,0.58773 z m 82.02742,26.33788 7.49491,-2.91648 -0.36614,-6 c -0.20137,-3.3 -0.5048,-6.675 -0.67428,-7.5 -0.32567,-1.58534 0.67614,-2.10406 1.23764,-0.64083 0.18133,0.47255 0.72081,3.62255 1.19884,7 0.47802,3.37746 1.05921,6.14083 1.29153,6.14083 0.35392,0 8.38608,-2.62868 11.16078,-3.65258 0.58051,-0.21422 -0.19827,-2.28468 -2.53332,-6.735 -7.93169,-15.11685 -11.09608,-28.42891 -8.13717,-34.2317 1.62278,-3.18247 3.80022,-4.55969 8.8323,-5.58637 l 4.33333,-0.88413 -0.18719,-3.95182 c -0.16014,-3.38087 -0.0552,-3.80782 0.72661,-2.95511 0.50259,0.54819 1.42468,2.39039 2.04908,4.09377 0.97192,2.65141 1.44295,3.14504 3.27339,3.43049 1.17596,0.18339 2.81311,0.5497 3.63811,0.81403 1.2892,0.41306 1.5,0.24155 1.5,-1.22043 0,-0.93556 -0.25801,-2.39555 -0.57336,-3.24442 -0.31535,-0.84887 -0.76629,-2.7434 -1.00209,-4.21006 l -0.42873,-2.66667 1.68332,3.17018 c 0.92582,1.74359 2.08411,4.74359 2.57397,6.66666 0.83192,3.26594 1.03792,3.51095 3.12397,3.71573 1.27727,0.12539 3.18281,1.0529 4.45131,2.16667 2.28725,2.00823 4.41696,2.50181 5.21605,1.20886 0.25105,-0.40621 -0.0632,-2.58121 -0.6984,-4.83333 -1.52584,-5.41017 -6.28527,-18.55159 -7.05451,-19.47848 -0.33386,-0.40227 -1.03269,-1.93789 -1.55296,-3.41248 -1.54149,-4.36906 -8.18487,-14.54755 -12.27068,-18.80022 -6.73644,-7.01155 -11.03162,-6.89474 -17.08693,0.46467 -5.78282,7.02824 -13.08698,24.30936 -16.96237,40.13174 -3.71268,15.15812 -4.30403,20.26248 -4.36372,37.66667 -0.0552,16.08777 0.31263,20.05351 1.80638,19.47709 0.44298,-0.17095 4.17813,-1.62322 8.30033,-3.22728 z m 26.29161,-66.72365 c -0.8799,-1.78649 -1.43909,-3.94222 -1.29697,-5 0.23508,-1.74973 0.3381,-1.66492 1.74526,1.43661 0.82249,1.81285 1.40613,4.06285 1.29698,5 -0.17849,1.53246 -0.35409,1.38792 -1.74527,-1.43661 z m -3.38897,-10.38087 c -0.50069,-1.20343 -0.74428,-2.35412 -0.5413,-2.5571 0.57201,-0.57201 1.92185,2.3431 1.67319,3.61341 -0.15316,0.78247 -0.50247,0.45649 -1.13189,-1.05631 z m 12.93578,65.1444 c 5.13333,-1.51117 12.89093,-3.75216 17.23911,-4.97997 4.34818,-1.22782 8.03462,-2.36124 8.1921,-2.51871 0.15747,-0.15747 -2.7121,-2.28244 -6.37683,-4.72215 -6.19451,-4.12385 -7.87243,-5.51251 -7.2878,-6.03143 0.12838,-0.11395 4.10533,2.12859 8.83767,4.98343 4.73233,2.85484 8.93233,5.08284 9.33333,4.95112 0.401,-0.13172 2.03992,-0.57551 3.64205,-0.98621 l 2.91297,-0.74672 -0.45639,-3.45286 c -0.57319,-4.33659 -1.46095,-5.28089 -10.51467,-11.18439 -16.86848,-10.99913 -35.44283,-17.22 -43.59389,-14.60035 -5.46841,1.75748 -6.81872,4.99415 -5.31989,12.75173 2.04504,10.58464 10.90128,30.3977 13.22167,29.57936 0.46048,-0.1624 5.03724,-1.53168 10.17057,-3.04285 z m 29.96912,-12.53967 c -1.08302,-0.66034 -2.36127,-1.67563 -2.84056,-2.2562 -0.74753,-0.90551 -0.69339,-1.00903 0.38082,-0.72812 1.6118,0.4215 5.26985,3.33425 4.79308,3.81652 -0.20032,0.20263 -1.25032,-0.17186 -2.33334,-0.8322 z m 27.69754,-2.3831 c 8.98334,-1.99468 18.43334,-3.97728 21,-4.40579 2.56667,-0.42851 4.87048,-0.97007 5.11958,-1.20346 0.24911,-0.23339 0.0241,-2.06472 -0.5,-4.06963 -0.5241,-2.0049 -0.95291,-4.40046 -0.95291,-5.32346 0,-1.52327 0.12307,-1.44855 1.33333,0.80954 0.78199,1.45902 1.33334,3.76139 1.33334,5.56788 0,2.86891 0.10287,3.0526 1.49999,2.67819 0.825,-0.22109 2.02919,-0.40608 2.67598,-0.41109 1.02768,-0.008 1.12669,-0.47147 0.78523,-3.67577 -0.21491,-2.01667 -0.24321,-3.66667 -0.0629,-3.66667 0.18033,0 0.83485,1.5264 1.4545,3.39199 0.9738,2.93183 1.32021,3.34004 2.55358,3.0091 0.78481,-0.21058 1.95194,-0.38698 2.5936,-0.39198 1.05979,-0.008 1.16667,-0.94187 1.16667,-10.19098 0,-9.62495 -0.10515,-10.45453 -1.92239,-15.16667 -7.52146,-19.50329 -18.28501,-35.50484 -25.81762,-38.38157 -2.71453,-1.03669 -2.99659,-1.02851 -5.18543,0.15023 -5.3235,2.86684 -12.63186,15.29801 -18.95793,32.24655 -5.7101,15.29826 -7.57959,24.54027 -7.39475,36.55668 0.10284,6.68542 0.14813,6.87833 1.52539,6.4968 0.78067,-0.21626 8.7694,-2.02521 17.75273,-4.01989 z M 194.1484,494.65943 c 4.5182,-10.60062 8.00602,-24.40454 9.47509,-37.5 0.39077,-3.48334 0.86553,-7.38334 1.05503,-8.66667 0.62439,-4.22844 0.86054,-38.22319 0.30334,-43.66667 -0.30026,-2.93333 -0.73818,-7.1659 -0.97317,-9.40571 -0.59943,-5.71359 -4.07384,-23.62414 -5.73313,-29.55419 -0.7633,-2.72795 -2.7345,-8.55993 -4.38043,-12.95997 -12.45734,-33.30187 -21.74287,-29.73246 -31.56664,12.13439 -3.94755,16.82359 -5.22151,27.199 -5.21254,42.45215 0.007,12.39135 0.65745,20.31533 2.54358,31 2.89236,16.3849 7.28528,30.71255 12.77517,41.66667 4.47644,8.93193 7.16025,13 8.57647,13 1.58456,0 1.62201,-1.14302 0.20841,-6.35994 -1.91394,-7.0634 -2.87598,-11.91414 -2.89993,-14.62173 -0.0215,-2.43296 0.0506,-2.5414 0.8867,-1.33334 0.50056,0.72325 1.27158,3.4103 1.71338,5.97122 0.81298,4.71251 3.51151,13.95745 4.96385,17.00574 1.27517,2.67645 2.88405,2.4791 3.7061,-0.4546 0.77567,-2.76819 3.07577,-15.86839 3.72353,-21.20735 0.22243,-1.83334 0.54262,-3.81987 0.71152,-4.41451 0.1689,-0.59465 0.56205,-7.29262 0.87366,-14.88437 0.35239,-8.58516 0.84971,-14.08632 1.31554,-14.55216 0.55418,-0.55417 0.74897,2.13993 0.74897,10.35887 0,12.12088 -1.46081,25.67265 -4.30976,39.98122 -1.98756,9.98234 -1.91984,9.17761 -0.77234,9.17761 0.50485,0 1.52527,-1.425 2.2676,-3.16666 z m -5.59963,-25.33334 c 0.2297,-2.10833 0.60406,-10.28333 0.83191,-18.16666 0.22785,-7.88334 0.52706,-14.45834 0.66491,-14.61111 0.94574,-1.04814 1.2484,2.34889 1.23254,13.8341 -0.0108,7.844 -0.36976,15.05186 -0.89356,17.94367 -1.06045,5.85459 -2.447,6.60987 -1.8358,1 z m -7.12171,2.66667 c -0.15466,-0.275 -0.32929,-2.11485 -0.38806,-4.08854 -0.0588,-1.9737 -0.23956,-3.80326 -0.40174,-4.06569 -1.44539,-2.33868 -2.37823,-38.90857 -1.02696,-40.25983 0.47014,-0.47014 0.71042,1.08633 0.76378,4.94739 0.0428,3.09834 0.17247,7.43334 0.28812,9.63334 0.11565,2.2 0.38221,7.3 0.59235,11.33333 0.21013,4.03333 0.51427,8.08333 0.67585,9 0.95937,5.44256 1.70714,12.78108 1.35964,13.34335 -0.4808,0.77795 -1.46693,0.86087 -1.86298,0.15665 z m 13.96343,-47.33333 c -0.18092,-0.64167 -0.51692,-4.61667 -0.74667,-8.83334 -0.22976,-4.21666 -0.59523,-8.26431 -0.81216,-8.99477 -0.33422,-1.12539 -0.24022,-1.20013 0.61585,-0.48965 1.71009,1.41924 3.4658,19.48442 1.89365,19.48442 -0.34196,0 -0.76976,-0.525 -0.95067,-1.16666 z m 233.90573,55.52454 c 42.05362,-6.14384 59.72757,-9.01659 64.13334,-10.42431 3.77981,-1.20772 5.80265,-4.4013 9.10171,-14.36947 10.57489,-31.95221 15.06231,-62.22505 13.2022,-89.0641 -2.03498,-29.36242 -10.57128,-51.57707 -27.21145,-70.81443 -18.04724,-20.86403 -44.84928,-33.23135 -75.36497,-34.7758 l -8.7281,-0.44174 -2.67597,5.59932 c -3.75447,7.85601 -8.89077,15.47603 -13.99643,20.76458 l -4.36145,4.51768 -0.12231,10.8252 c -0.0673,5.95385 -0.30818,11.57519 -0.53535,12.49186 -1.37231,5.53761 -1.60419,8.98525 -1.09654,16.30354 1.62359,23.40555 2.15778,51.23583 1.74728,91.02979 -0.23641,22.91667 -0.62066,47.0247 -0.85391,53.5734 l -0.42407,11.90673 1.92634,-0.39572 c 1.05949,-0.21765 21.42635,-3.24459 45.25968,-6.72653 z M 104.9629,464.54446 c 0,-0.33823 -1.125,-0.97946 -2.5,-1.42495 -5.397145,-1.74863 -16.061745,-7.98526 -16.140665,-9.43901 -0.0143,-0.2634 3.6773,1.42232 8.20356,3.74605 8.157195,4.18781 20.367045,8.03317 21.587575,6.79877 0.77321,-0.782 -6.71341,-7.51829 -13.50005,-12.14705 -11.400185,-7.77539 -21.907965,-12.05297 -31.222545,-12.71031 -6.62512,-0.46754 -7.68848,0.20715 -6.14575,3.89941 1.07532,2.57361 7.18175,8.78552 12.12186,12.33126 3.84482,2.7596 11.23607,6.5986 15.92935,8.27368 3.50824,1.25212 11.666665,1.72216 11.666665,0.67215 z m 4.33334,-4.0517 c -0.22661,-0.36667 -0.0943,-0.66667 0.29399,-0.66667 0.3883,0 0.70601,0.3 0.70601,0.66667 0,0.36667 -0.1323,0.66667 -0.29399,0.66667 -0.16169,0 -0.4794,-0.3 -0.70601,-0.66667 z m -10.000005,-5.33333 c -0.22661,-0.36667 0.03798,-0.66667 0.58798,-0.66667 0.550005,0 1.185415,0.3 1.412025,0.66667 0.22661,0.36666 -0.038,0.66666 -0.58798,0.66666 -0.55,0 -1.185415,-0.3 -1.412025,-0.66666 z M 368.31916,412.7157 c -0.41438,-26.33928 -0.81405,-49.08865 -0.88817,-50.55416 -0.13133,-2.5967 -0.2771,-2.40843 -5.72472,7.39396 -8.11796,14.60734 -15.79131,25.28854 -24.43423,34.01206 -7.80471,7.8775 -12.94914,11.64148 -18.5429,13.5671 l -3.43291,1.18176 0.11877,3.25484 c 0.0653,1.79016 0.45794,4.45483 0.87248,5.9215 1.90197,6.72917 3.73038,11.82567 4.45973,12.43097 0.58051,0.48178 1.95149,-1.11731 5.04527,-5.88471 4.4066,-6.79041 7.4251,-9.9168 10.26206,-10.62883 4.91099,-1.23258 10.9465,1.93969 16.08866,8.45623 3.96264,5.02176 3.83442,4.84605 4.34907,5.95967 0.25417,0.55 0.76179,1.45 1.12803,2 2.01112,3.02017 6.68115,11.65983 8.69509,16.08612 1.27279,2.79736 2.41384,4.99769 2.53567,4.88961 0.12183,-0.10808 -0.11753,-21.74683 -0.5319,-48.08612 z m -234.04945,20.14236 c 0.88467,-1.06597 0.58168,-1.2293 -9.60056,-5.17535 -5.51558,-2.13752 -8.88051,-3.8813 -11.70625,-6.06645 l -1.66666,-1.28884 1.66666,0.50039 c 0.91667,0.27521 6.09582,2.26241 11.50921,4.416 10.39124,4.1339 11.82413,4.49341 11.82413,2.96668 0,-1.33999 -7.1706,-10.67511 -13.35351,-17.3844 -2.86273,-3.10644 -3.9698,-5.39884 -2.13149,-4.41365 1.31804,0.70636 8.03215,7.67317 11.56266,11.99782 3.43235,4.20443 3.73784,2.13707 0.6097,-4.12601 C 125.6364,399.57391 107.67813,378.33772 92.189635,366.04419 77.073125,354.0459 40.039645,334.53207 18.426837,327.1768 9.6743174,324.19814 5.9214934,323.83615 3.5661634,325.74338 c -1.368539,1.10818 -1.528817,1.76141 -1.407174,5.73505 0.236587,7.72843 6.024129,22.29142 12.9725886,32.64247 7.083395,10.55206 24.455227,28.255 35.026017,35.69363 10.89692,7.66812 38.2871,21.95386 51.683955,26.9565 14.57605,5.44298 30.4844,8.42911 32.42816,6.08703 z m -25.71296,-7.12156 c -6.88537,-3.66361 -16.260515,-10.60328 -16.260515,-12.03636 0,-0.36765 1.425,0.41296 3.16667,1.73469 1.74166,1.32174 6.691665,4.40492 10.999995,6.85152 4.30834,2.44659 7.83334,4.69392 7.83334,4.99405 0,1.03135 -1.81935,0.54195 -5.73949,-1.5439 z m 14.65703,-4.80804 c -7.79555,-4.20227 -23.495045,-15.41376 -22.69884,-16.20996 0.38116,-0.38116 0.67429,-0.20564 14.11463,8.45154 5.5,3.54266 10.825,6.94645 11.83333,7.56399 1.70446,1.04387 2.47954,2.44497 1.33334,2.41025 -0.275,-0.008 -2.33711,-1.00545 -4.58246,-2.21582 z M 87.465175,404.8627 c -6.84265,-3.56949 -33.59888,-27.98706 -38.56235,-35.19177 l -1.50059,-2.17817 2.26402,2 c 1.24521,1.1 4.52136,4.12836 7.28033,6.72968 10.79052,10.17394 19.00334,17.47222 24.78056,22.02111 8.78789,6.91946 10.83039,9.2756 5.73803,6.61915 z m 10.77947,-17.0676 c -5.0095,-3.72722 -13.75464,-11.44189 -14.24268,-12.56443 -0.8724,-2.00662 0.40151,-1.2815 6.72275,3.82663 6.99624,5.65361 12.038415,10.52412 11.476625,11.08592 -0.18788,0.18788 -1.96839,-0.86878 -3.956695,-2.34812 z m 212.049075,28.19766 c -0.003,-2.53586 -2.84904,-7.99761 -8.16416,-15.67014 -4.72032,-6.81394 -4.90722,-7.16319 -3.83333,-7.16319 1.09185,0 2.65133,1.79457 7.96583,9.16666 3.96477,5.49981 4.60371,2.5584 1.02761,-4.73066 -2.33923,-4.768 -3.67118,-7.14206 -4.3589,-7.76934 -0.20099,-0.18333 -1.08823,-1.38333 -1.97162,-2.66666 -4.46572,-6.48746 -13.54056,-14.14845 -28.99625,-24.47867 -16.74891,-11.19456 -27.34421,-16.98254 -36.20108,-19.77586 -6.93147,-2.18608 -11.29749,-2.28895 -13.41512,-0.31607 -1.39205,1.29689 -1.49332,1.80677 -1.09235,5.5 0.87542,8.06346 6.38775,16.94123 17.21666,27.72795 13.10387,13.0528 28.96704,24.52408 44.65663,32.29296 10.47404,5.18634 21.97588,9.64195 25.00192,9.68531 1.92731,0.0276 2.16639,-0.17149 2.16416,-1.80229 z m -12.87071,-5.165 c -5.71953,-2.37545 -16.97831,-9.28169 -20.79345,-12.75488 l -3.33333,-3.03457 3.33333,1.83243 c 1.83334,1.00784 4.53334,2.63589 6,3.6179 1.46667,0.98201 6.56667,3.97365 11.33333,6.64808 4.76667,2.67444 8.79167,4.97364 8.94445,5.10933 0.83896,0.74513 -2.11408,-0.0186 -5.48433,-1.41829 z m -3.31902,-11.835 c -4.59911,-4.85833 -8.24548,-8.95017 -8.10304,-9.09297 0.93051,-0.93282 17.62861,15.37869 17.62861,17.22048 0,1.61535 -1.57336,0.27291 -9.52557,-8.12751 z m -4.80628,2.44973 c -2.37975,-1.24084 -4.33481,-2.92906 -4.33481,-3.74318 0,-0.71724 2.08939,0.36691 5.57942,2.89508 2.81123,2.03644 2.04103,2.56128 -1.24461,0.8481 z m -27.47408,-14.21912 c -1.47704,-1.06996 -3.36596,-2.90097 -4.19761,-4.06892 l -1.51209,-2.12353 1.92448,1.0093 c 2.21665,1.16254 7.34271,6.25654 6.82096,6.77829 -0.19263,0.19263 -1.55871,-0.52519 -3.03574,-1.59514 z m 20.13927,-7.9584 c -2.339,-1.43006 -4.0226,-3.30517 -3.46672,-3.86105 0.4585,-0.4585 3.5883,1.67512 5.40337,3.68356 1.56259,1.72905 0.7264,1.80569 -1.93665,0.17749 z m 38.67211,34.32664 c 3.46454,-1.61336 9.76256,-6.52542 15.05923,-11.74528 8.9621,-8.83212 23.01146,-29.90038 29.7559,-44.62159 l 1.70978,-3.73198 -0.45937,-14 c -0.25265,-7.7 -0.73375,-16.55 -1.0691,-19.66667 -1.27565,-11.8556 -1.54883,-19.68853 -0.73939,-21.20098 0.43143,-0.80613 0.60291,-1.46568 0.38107,-1.46568 -1.17288,0 -7.41516,5.02232 -13.22212,10.63807 -18.65024,18.03612 -35.48408,45.55683 -41.40778,67.69526 -2.86106,10.69256 -3.31331,14.01347 -2.13709,15.69277 1.01187,1.44465 1.0408,1.42114 1.77913,-1.44546 1.2566,-4.87886 3.45019,-11.38189 5.14318,-15.24731 1.98611,-4.53464 4.88262,-9.54072 5.28654,-9.13679 0.16567,0.16567 -0.56755,2.51422 -1.62937,5.219 -4.71581,12.01263 -6.97805,19.32913 -6.21305,20.09413 0.56488,0.56488 0.75699,0.52516 0.75699,-0.1565 0,-1.80401 4.21754,-10.01984 5.14362,-10.01984 1.08721,0 0.96436,0.51524 -1.90743,8 -1.99364,5.19605 -3.5989,12.65228 -3.04449,14.14128 0.2122,0.56991 0.49372,0.41029 0.83705,-0.47461 3.61767,-9.32418 8.60936,-18.91745 9.42102,-18.10579 0.19444,0.19444 -0.85813,2.99778 -2.33905,6.22966 -5.66949,12.37276 -8.09245,20.58943 -6.86556,23.28218 0.8998,1.97483 1.56911,1.97786 5.76029,0.0261 z m -1.67212,-3.16671 c 0,-0.88229 18.07052,-19.41718 18.50607,-18.98163 0.75338,0.75338 -2.68912,5.31747 -8.08656,10.72121 -6.54478,6.55242 -10.41951,9.62424 -10.41951,8.26042 z m 4,-15.80162 c 0,-0.29488 0.83881,-1.86988 1.86402,-3.5 1.02522,-1.63012 3.03981,-5.06385 4.47688,-7.63052 1.74914,-3.12404 2.69317,-4.27368 2.8558,-3.47782 0.2724,1.33296 -3.75614,9.65271 -6.28403,12.97782 -1.55933,2.0511 -2.91267,2.8087 -2.91267,1.63052 z m 9.57377,-5.12883 c 0.57293,-1.49303 10.23182,-16.62535 11.7658,-18.43315 3.31361,-3.90513 -4.57761,10.99595 -8.59838,16.2364 -2.36571,3.08334 -3.92176,4.16253 -3.16742,2.19675 z m 11.98422,-9.83502 c 5.63157,-9.88489 7.4756,-13.27993 12.50013,-23.01406 3.07955,-5.96607 5.69678,-10.55458 5.81608,-10.19669 0.70196,2.10588 -15.4151,33.82798 -18.03044,35.48809 -1.76373,1.11953 -1.84627,0.46174 -0.28577,-2.27734 z M 328.9841,358.45351 c -0.0117,-0.57158 0.41925,-1.62158 0.95759,-2.33333 0.78251,-1.03458 0.98305,-1.08568 1,-0.25484 0.0117,0.57159 -0.41926,1.62159 -0.95759,2.33333 -0.78252,1.03458 -0.98305,1.08568 -1,0.25484 z m -16.03141,35.16657 c 0.006,-0.29664 -0.2898,-0.35393 -0.65646,-0.12732 -0.36667,0.22661 -0.66208,0.91932 -0.65646,1.53934 0.009,0.97152 0.0995,0.98912 0.65646,0.12733 0.35543,-0.55 0.65084,-1.24271 0.65646,-1.53935 z m -2.69121,-23.96065 c 2.9065,-8.44345 11.17496,-26.15123 14.3973,-30.83334 2.03483,-2.95663 3.88021,-6.97946 3.41505,-7.44462 -0.16528,-0.16528 -2.35785,0.64698 -4.87239,1.80502 -2.51453,1.15803 -7.27817,2.96478 -10.58586,4.015 l -6.01397,1.90948 -2.58379,4.41692 c -1.46176,2.49883 -2.65676,5.47679 -2.75182,6.85756 -0.18279,2.65501 3.70082,25.25065 4.57311,26.60731 0.29469,0.45833 0.77776,0.83333 1.07348,0.83333 0.29572,0 1.80272,-3.675 3.34889,-8.16666 z m -7.91667,-28.66786 c 6.37488,-12.39706 9.37808,-26.96806 9.29927,-45.11838 -0.0443,-10.20228 -0.26898,-13.85711 -0.89002,-14.47815 -0.71318,-0.71319 -25.34244,11.83423 -27.73801,14.13117 -1.0032,0.96189 -1.03138,0.75451 1.76231,12.96655 0.54523,2.38333 2.0098,7.84789 3.2546,12.14345 1.2448,4.29557 2.26327,7.97057 2.26327,8.16667 0,0.99935 -1.44052,0.16086 -1.96443,-1.14345 -1.25563,-3.12603 -4.70748,-15.13519 -6.51929,-22.68095 l -1.8843,-7.84761 -4.64932,3.32181 c -2.55713,1.827 -5.83119,4.33773 -7.27568,5.5794 l -2.62635,2.25758 1.5388,4.26822 c 4.43515,12.30183 10.66928,22.06569 19.85805,31.10155 4.85424,4.77346 6.67911,5.47565 5.19761,2 -0.50795,-1.19167 -1.86632,-3.96667 -3.0186,-6.16667 -1.79261,-3.42255 -7.98982,-18.91507 -7.98982,-19.9739 0,-0.19769 0.25825,-0.35943 0.57389,-0.35943 0.53494,0 5.42611,10.01646 5.42611,11.11195 0,0.44308 5.42234,11.38166 7.67262,15.47811 2.0843,3.79429 3.88209,2.68476 7.70929,-4.75792 z m -4.71525,-0.10683 c 0,-2.45849 1.85003,-11.58181 2.6148,-12.89471 1.10069,-1.88961 0.88342,4.51459 -0.3349,9.87113 -1.03357,4.54426 -2.2799,6.19713 -2.2799,3.02358 z m -3.46352,-6.44922 c -0.13272,-0.39815 -0.0418,-2.57315 0.20209,-4.83333 0.24387,-2.26019 0.46592,-11.12289 0.49344,-19.6949 0.0275,-8.57201 0.19698,-15.73241 0.37657,-15.912 0.92132,-0.92131 1.37367,4.91465 1.38208,17.8308 0.009,14.42841 -0.62215,23.33334 -1.65483,23.33334 -0.30693,0 -0.66664,-0.32576 -0.79935,-0.72391 z m 11.10268,-17.94276 c 0.20749,-4.95 0.4166,-11.21079 0.4647,-13.91287 0.0646,-3.62824 0.26015,-4.60428 0.7479,-3.73271 1.71274,3.0605 1.05405,22.4602 -0.86581,25.49939 -0.53164,0.84161 -0.62379,-1.24539 -0.34679,-7.85381 z m -177.41079,20.66667 c 0.93598,-3.11667 2.24101,-7.46667 2.90007,-9.66667 l 1.19829,-4 0.20324,3.83333 c 0.11179,2.10834 0.50534,3.83334 0.87457,3.83334 1.08952,0 4.97178,-9.22443 6.50713,-15.4612 2.45036,-9.95371 1.6927,-20.7035 -1.9997,-28.37214 -1.00768,-2.09281 -1.75729,-2.83333 -2.86811,-2.83333 -1.88418,0 -2.96871,1.21615 -5.94519,6.66667 -5.30353,9.71182 -8.40814,24.46484 -7.49744,35.62765 0.40986,5.02394 2.007,15.08467 2.85669,17.9949 0.34891,1.19505 0.43821,1.1707 1.22253,-0.33333 0.46537,-0.89241 1.61194,-4.17256 2.54792,-7.28922 z m -3.29861,-4.27601 c -0.56476,-1.47175 0.15378,-10.30291 1.34354,-16.51268 0.92347,-4.81993 2.97005,-10.85686 3.50068,-10.32623 0.15056,0.15056 -0.30915,3.538 -1.02157,7.52766 -0.71242,3.98966 -1.51309,9.65392 -1.77925,12.58726 -0.26617,2.93333 -0.53533,5.69965 -0.59814,6.14737 -0.20064,1.43024 -0.99594,1.74754 -1.44526,0.57662 z m 190.06155,-0.19831 c 1.39714,-2.22892 2.87035,-2.67009 5.03958,-1.50915 0.99436,0.53217 1.85654,0.31707 3.90013,-0.97299 3.35158,-2.11576 3.74513,-2.7979 1.89482,-3.28427 -1.3964,-0.36705 -1.28442,-0.58358 1.7391,-3.36272 1.77738,-1.63372 3.67422,-3.14026 4.21521,-3.34785 1.65526,-0.63518 15.54969,-11.28539 21.55318,-16.5207 11.64679,-10.15654 19.16633,-14.528 24.99018,-14.528 3.6517,0 3.75682,-0.0557 7.86338,-4.16667 4.70734,-4.71238 9.33101,-11.3701 13.18529,-18.98576 1.44212,-2.8495 2.62402,-5.33091 2.62643,-5.51424 0.0145,-1.10101 -22.05327,0.89939 -33.99861,3.08192 -13.95356,2.54945 -16.5548,3.36693 -20.06481,6.30567 -1.71613,1.43683 -3.3036,2.61241 -3.52771,2.61241 -0.80487,0 -0.38503,-1.58684 0.75919,-2.86944 1.11936,-1.25474 1.1126,-1.29118 -0.16667,-0.89877 -22.43637,6.88218 -23.53331,7.46936 -28.14713,15.06667 -1.43883,2.36925 -1.82584,3.8859 -1.92576,7.54691 -0.17354,6.3588 0.76477,6.50072 6.05542,0.91588 2.30706,-2.43536 4.5389,-4.42792 4.95964,-4.42792 0.42074,0 -1.80243,3.375 -4.94038,7.5 -5.23958,6.88771 -5.67404,7.69122 -5.32164,9.84216 0.23487,1.43362 -0.0166,3.30021 -0.64822,4.81192 -1.30048,3.1125 -1.29541,3.17926 0.24129,3.17926 0.70027,0 4.06972,-2.1 7.48766,-4.66667 6.18423,-4.64399 7.23912,-5.23295 7.23912,-4.04175 0,0.82265 -7.71796,7.34781 -12.66284,10.70582 -2.15016,1.46015 -4.06466,3.18307 -4.25444,3.82871 -0.30746,1.04599 -0.63797,6.36128 -0.47788,7.68512 0.0977,0.80788 6.46182,-2.6397 13.72849,-7.43704 7.68949,-5.07647 7.66667,-5.06398 7.66667,-4.19642 0,0.9553 -4.66927,5.47688 -7,6.77859 -1.1,0.61434 -4.4,2.41128 -7.33333,3.99318 -9.65267,5.20554 -11.53717,6.80367 -10.48068,8.88803 0.14986,0.29566 1.21541,0.44566 2.36788,0.33333 1.51535,-0.1477 2.46691,-0.79691 3.43744,-2.34522 z m 4.34202,-14.35902 c 0,-0.17117 1.725,-1.45084 3.83334,-2.84371 7.49606,-4.95228 22.61817,-16.01763 28.38448,-20.76987 1.90748,-1.57203 3.11552,-1.97577 3.11552,-1.04123 0,1.25556 -20.38888,17.11545 -27.75939,21.59319 -3.77479,2.29326 -7.57395,3.829 -7.57395,3.06162 z m 12,-15.79399 c 0,-0.34502 0.29657,-0.8106 0.65903,-1.03462 0.37791,-0.23356 0.48968,0.034 0.26201,0.62732 -0.44319,1.15495 -0.92104,1.36626 -0.92104,0.4073 z m 24.66667,-10.66666 c 0,-0.34503 0.29656,-0.81061 0.65903,-1.03463 0.37791,-0.23356 0.48967,0.034 0.26201,0.62732 -0.4432,1.15495 -0.92104,1.36626 -0.92104,0.40731 z m -25.66667,33.96065 c 1.41639,-1.56509 0.25235,-1.82377 -1.28571,-0.28571 -1.17815,1.17814 -1.31003,1.61905 -0.48428,1.61905 0.30984,0 1.10634,-0.6 1.76999,-1.33334 z m 3,-2.66666 c 0,-0.36667 -0.13229,-0.66667 -0.29399,-0.66667 -0.16169,0 -0.47939,0.3 -0.70601,0.66667 -0.22661,0.36666 -0.0943,0.66666 0.29399,0.66666 0.38831,0 0.70601,-0.3 0.70601,-0.66666 z M 78.296235,321.94609 c 0,-0.45541 -4.11274,-5.68089 -5.34148,-6.78666 -2.38973,-2.15058 -7.78622,-10.42786 -7.18837,-11.02571 0.44809,-0.44809 1.59749,0.7165 5.67094,5.7459 6.30346,7.78275 11.29677,12.83324 12.16029,12.29955 1.29721,-0.80172 0.48375,-16.37363 -1.20992,-23.16153 -4.71024,-18.87762 -18.72168,-44.0726 -31.48499,-56.61538 -6.10912,-6.00358 -12.78174,-9.61686 -15.73695,-8.5217 -3.447134,1.27745 -4.574964,13.45107 -2.228998,24.05942 5.588668,25.27174 22.353958,51.63732 39.026148,61.37366 5.51307,3.21957 6.33333,3.56051 6.33333,2.63245 z m 1.39235,-9.28666 c -2.32446,-7.15508 -6.48057,-16.96962 -11.62581,-27.45398 -2.6216,-5.34198 -4.86654,-9.93769 -4.98876,-10.21269 -0.12222,-0.275 0.19962,-0.5 0.7152,-0.5 1.83777,0 12.91319,22.70711 16.80135,34.44656 2.68582,8.10927 2.70559,8.22011 1.46613,8.22011 -0.52994,0 -1.5132,-1.86844 -2.36811,-4.5 z m -8.29932,-7.69 c -3.13583,-3.67052 -6.73968,-10.53673 -6.26998,-11.94583 0.14403,-0.43208 2.44945,2.74003 5.12316,7.04914 2.67371,4.30911 4.71515,7.98088 4.53653,8.1595 -0.17862,0.17862 -1.70399,-1.28964 -3.38971,-3.26281 z m -22.81747,-29.51211 c -1.21163,-2.89985 -1.93204,-6.29789 -1.3352,-6.29789 0.43517,0 2.42135,4.26 3.34137,7.16666 0.78612,2.48359 -0.91288,1.74784 -2.00617,-0.86877 z m 43.09745,41.7131 c 8.27183,-13.92357 15.872635,-36.75868 19.087385,-57.34433 1.59566,-10.21779 1.64856,-42.35636 0.0856,-52 -1.11949,-6.90733 -3.54523,-12.87673 -5.36954,-13.21366 -1.6826,-0.31076 -7.693905,5.65713 -12.490255,12.40005 -4.85877,6.83068 -13.72835,24.56041 -16.68696,33.35616 -2.38622,7.09409 -4.66591,18.08846 -4.66591,22.5025 0,1.64878 0.40454,3.96314 0.89898,5.14303 0.92435,2.20582 4.40788,6.72729 4.84567,6.28949 0.13498,-0.13497 0.99855,-3.94333 1.91905,-8.46301 1.90561,-9.35656 3.89302,-16.24977 5.38605,-18.68122 l 1.02341,-1.66667 -0.29117,1.66667 c -0.16015,0.91666 -1.227,5.71666 -2.3708,10.66666 -1.14379,4.95 -2.43926,12.52011 -2.87881,16.82246 -0.78469,7.68041 -0.772,7.85925 0.69869,9.84847 1.44012,1.94786 4.09133,10.717 4.11247,13.60238 0.0156,2.13434 1.10361,3.54622 2.02366,2.62616 1.09512,-1.09512 3.61592,-10.47126 5.99195,-22.28715 2.94743,-14.65739 4.36541,-14.86601 1.89627,-0.27898 -1.43972,8.50551 -2.76985,14.28201 -4.97015,21.58447 -3.77289,12.52167 -2.7853,15.83793 1.41422,4.74886 2.28444,-6.03218 3.63385,-8.17734 3.63385,-5.77676 0,1.19904 -4.4112,15.06542 -5.92018,18.60977 -1.04048,2.44391 -1.21749,4.50032 -0.38737,4.50032 0.1364,0 1.49265,-2.09505 3.01389,-4.65567 z m -6.6705,-23.34433 c -0.008,-1.27816 2.55501,-6.9647 2.95793,-6.56177 0.48165,0.48164 -0.88358,4.82732 -1.96639,6.25924 -0.74311,0.98268 -0.98659,1.05697 -0.99154,0.30253 z m -2.01543,-16.33333 c 0,-1.46667 0.29082,-3.11667 0.64625,-3.66667 0.47618,-0.73683 0.64625,-0.29823 0.64625,1.66667 0,1.46667 -0.29081,3.11667 -0.64625,3.66667 -0.47618,0.73683 -0.64625,0.29823 -0.64625,-1.66667 z m 18.819845,-16.2193 c 0.19584,-3.6722 0.67014,-6.53904 1.15809,-7 0.65537,-0.61913 0.75776,0.50645 0.49473,5.4386 -0.19584,3.6722 -0.67013,6.53904 -1.15809,7 -0.65537,0.61913 -0.75776,-0.50645 -0.49473,-5.4386 z m 279.25367,46.38597 c 0.29094,-12.90517 -0.51594,-15.83334 -4.36298,-15.83334 -1.22914,0 -3.39643,0.49985 -4.81621,1.11078 l -2.58142,1.11078 2,0.44012 c 1.1,0.24207 2.65299,0.79099 3.45109,1.21983 1.82424,0.98022 4.11649,6.97481 4.6617,12.19111 0.54039,5.17017 1.5291,5.0266 1.64782,-0.23928 z M 269.62956,290.46069 c 3.11667,-2.07848 6.36368,-4.14388 7.21558,-4.58979 1.49491,-0.78247 1.53299,-1.0073 1.09237,-6.44795 -0.46154,-5.69893 0.0761,-13.18355 0.90997,-12.66819 0.24919,0.15401 0.55815,3.08306 0.68658,6.50901 0.12844,3.42594 0.32746,6.97899 0.44229,7.89566 0.11482,0.91666 0.23377,1.91268 0.26432,2.21336 0.0306,0.30068 2.23056,-0.65159 4.88889,-2.11615 2.65834,-1.46457 9.03333,-4.51354 14.16667,-6.77549 5.13333,-2.26194 9.52752,-4.30967 9.76485,-4.55051 1.32547,-1.34501 -6.78583,-25.33017 -10.99118,-32.50099 -2.82582,-4.8185 -6.81449,-8.62028 -9.71163,-9.2566 -4.24718,-0.93283 -10.22527,4.13168 -16.25445,13.77046 -9.31825,14.89698 -12.84284,32.71442 -10.03005,50.7038 0.24926,1.59417 0.65844,2.32705 1.13906,2.04015 0.41254,-0.24625 3.30007,-2.14829 6.41673,-4.22677 z m 46.90775,-10.96793 c 0.48684,-1.26869 -0.28653,-1.27711 -1.947,-0.0212 -1.26777,0.9589 -1.26504,0.97923 0.13459,1 0.78577,0.0117 1.60136,-0.4288 1.81241,-0.9788 z m 28.10565,-20.94003 c 14.4007,-3.94076 39.04234,-7.33473 53.65326,-7.38983 3.48334,-0.0131 6.67729,-0.2443 7.09768,-0.51368 1.0986,-0.70399 2.27284,-5.55928 2.39777,-9.91436 0.0955,-3.32919 -0.097,-3.92161 -1.73118,-5.32725 -2.74439,-2.36063 -7.00918,-2.17774 -19.6866,0.84425 -11.92916,2.84361 -26.79618,9.31068 -37.07766,16.12856 -5.76407,3.82228 -10.38037,7.37142 -9.65327,7.4217 0.1907,0.0132 2.4407,-0.54904 5,-1.24939 z m -37.0134,-12.76598 c 0,-1.55986 -1.87334,-1.73311 -2.4514,-0.22671 -0.42088,1.0968 0.96964,2.43648 1.91957,1.84939 0.29251,-0.18078 0.53183,-0.91099 0.53183,-1.62268 z m 0.66667,-5.69865 c 0,-0.51077 -0.23532,-0.92867 -0.52293,-0.92867 -0.28761,0 -1.04812,-0.88909 -1.69003,-1.97575 -0.6419,-1.08665 -1.53683,-2.36165 -1.98873,-2.83333 -1.55624,-1.62436 -5.79831,-7.86188 -5.79831,-8.5258 0,-0.36582 -0.24482,-0.66512 -0.54405,-0.66512 -0.92223,0 -8.12526,-15.00294 -8.1209,-16.91475 0.002,-0.68347 3.77161,5.19101 4.86551,7.58141 0.25169,0.55 0.74821,1.45 1.10339,2 0.35517,0.55 2.28416,3.7 4.28664,7 2.00249,3.3 5.11779,7.64124 6.92291,9.6472 l 3.28203,3.6472 0.91538,-1.6472 c 0.70608,-1.27055 0.92,-5.45817 0.93557,-18.31386 0.0268,-22.09918 -0.74916,-29.46363 -5.23289,-49.66667 -2.50897,-11.30503 -8.63999,-29.11558 -12.39248,-36 -1.09922,-2.01667 -2.30526,-4.36541 -2.68007,-5.21942 -1.30642,-2.97665 -9.29133,-14.4833 -13.48485,-19.43233 -4.86289,-5.739 -7.89766,-8.014924 -10.68731,-8.014924 -5.61111,0 -10.28468,11.559534 -12.46209,30.823544 -0.57828,5.11613 -0.39394,17.77591 0.3204,22.00406 0.23317,1.38012 0.52245,3.1835 0.64285,4.00752 2.38509,16.32398 13.03531,44.60037 21.50435,57.09414 5.99717,8.84719 8.15631,11.29799 10.37402,11.77536 4.88743,1.05204 8.76607,4.39753 12.84485,11.07923 1.47091,2.40959 2.96906,4.00828 4.12495,4.4018 2.13851,0.72804 3.48179,0.3717 3.48179,-0.92364 z m -0.79621,-10.34453 c -0.99572,-2.25776 -1.21161,-6.79854 -0.36356,-7.64659 0.53906,-0.53907 1.9677,6.76424 1.67443,8.5598 -0.21666,1.3265 -0.37033,1.21946 -1.31087,-0.91321 z m -17.75023,-9.58921 c -0.79946,-0.91946 -1.45356,-1.83948 -1.45356,-2.04449 0,-0.205 -0.70536,-1.32772 -1.56747,-2.49492 -3.78039,-5.11823 -10.80103,-21.50174 -13.53737,-31.59108 -2.93285,-10.8139 -5.4779,-30.35662 -3.58538,-27.53111 0.36839,0.55 0.6744,1.90059 0.68001,3.00132 0.009,1.78485 1.88724,12.09109 3.3407,18.33201 1.89199,8.12391 5.00112,17.18502 8.46384,24.66667 2.70864,5.85233 7.47611,15.37454 8.1776,16.33333 0.57303,0.78323 1.40608,3 1.12737,3 -0.1057,0 -0.84629,-0.75228 -1.64574,-1.67173 z m 11.00417,-2.32827 c -0.68992,-1.66135 -7.55767,-27.85091 -8.43891,-32.18102 -0.89083,-4.37722 0.40913,-3.31715 2.3043,1.87909 1.00409,2.75305 2.05698,5.97223 2.33975,7.15374 0.28277,1.18151 1.11946,4.39819 1.85931,7.14819 1.78763,6.64458 3.04244,14.04043 2.6599,15.67743 -0.24454,1.04645 -0.39577,1.11379 -0.72435,0.32257 z m 3.04227,-14.48889 c -0.45834,-0.15888 -0.83334,-0.92817 -0.83334,-1.70952 0,-1.30813 0.0853,-1.33532 1.07739,-0.34325 1.20048,1.20048 1.04599,2.49999 -0.24405,2.05277 z m -1.16667,-4.84444 c 0.22661,-0.36667 0.54432,-0.66667 0.70601,-0.66667 0.1617,0 0.29399,0.3 0.29399,0.66667 0,0.36667 -0.3177,0.66667 -0.70601,0.66667 -0.38831,0 -0.5206,-0.3 -0.29399,-0.66667 z m -23.22222,-17.11111 c -0.24444,-0.24445 -0.42543,-1.06945 -0.40219,-1.83333 0.0389,-1.27707 0.0937,-1.26033 0.68099,0.2079 0.65288,1.63214 0.51745,2.42168 -0.2788,1.62543 z m -2.88458,48.81569 c 0.21976,-0.57268 -0.56087,-1.77868 -1.92867,-2.97963 -1.26382,-1.10965 -2.29786,-2.17671 -2.29786,-2.37125 0,-0.85228 1.9189,-0.22242 4,1.31297 2.72771,2.01244 4.66667,2.17393 4.66667,0.38867 0,-0.81053 -2.0373,-2.86884 -5.56963,-5.62708 -9.81686,-7.66556 -18.33348,-16.41276 -22.62558,-23.23814 -2.38781,-3.79715 -0.81827,-4.43551 1.69681,-0.69012 5.8564,8.7212 22.4984,24.2281 22.4984,20.96385 0,-0.98506 -4.10164,-7.10182 -6.34605,-9.46385 -1.64339,-1.72951 -2.39397,-3.30789 -2.90046,-6.09928 -1.42429,-7.84968 -3.45211,-10.5764 -15.75349,-21.18295 -12.47079,-10.75262 -10.5078,-10.52622 3.89222,0.4489 2.04463,1.55833 3.91782,2.83333 4.16264,2.83333 0.65926,0 -0.27109,-4.05561 -1.18217,-5.1534 -0.43234,-0.52093 -0.89275,-2.09189 -1.02315,-3.49103 -0.1304,-1.39913 -0.91465,-4.30151 -1.74276,-6.44972 l -1.50567,-3.90585 -7.96722,-4.13072 c -9.16383,-4.75112 -15.06859,-6.26595 -19.16046,-4.91552 -1.38729,0.45785 -2.5926,1.37148 -2.84074,2.15327 -1.52725,4.81194 4.16191,20.9855 11.9962,34.10368 2.58744,4.33256 5.15444,8.39299 5.70444,9.02318 0.55,0.63019 2.03978,2.48537 3.31061,4.12262 6.48794,8.3586 16.70815,18.08036 24.02272,22.85113 3.90423,2.54645 6.29153,3.06488 6.8932,1.49694 z m -6.51224,-7.41887 c -0.70599,-0.51623 -1.07338,-1.14884 -0.81642,-1.40581 0.25697,-0.25696 0.96721,0.0328 1.57832,0.64391 1.43919,1.43919 0.90072,1.97765 -0.7619,0.7619 z M 249.9629,192.49276 c -0.22662,-0.36667 -0.0943,-0.66667 0.29399,-0.66667 0.3883,0 0.70601,0.3 0.70601,0.66667 0,0.36667 -0.1323,0.66667 -0.29399,0.66667 -0.1617,0 -0.4794,-0.3 -0.70601,-0.66667 z m 3.25563,-16.9123 c -1.7906,-1.62614 -3.07989,-3.13684 -2.8651,-3.35713 0.48518,-0.49759 4.86286,2.8299 5.92159,4.50102 1.45062,2.2897 0.21528,1.82737 -3.05649,-1.14389 z m 106.4321,52.52354 c 0.43315,-1.13928 1.61208,-2.08906 3.4835,-2.80641 1.55582,-0.59638 6.0776,-2.6976 10.0484,-4.66938 3.97079,-1.97179 7.35847,-3.44623 7.52815,-3.27655 1.00175,1.00175 -9.37536,7.19707 -15.2385,9.09765 -1.3699,0.44407 -2.6626,1.0855 -2.87268,1.42542 -1.67739,2.71406 7.50748,1.43979 14.69672,-2.03897 10.97713,-5.31165 18.92472,-14.88577 14.37716,-17.31954 -1.95438,-1.04596 -10.01113,-0.8259 -14.08949,0.38483 -6.66677,1.97915 -17.12662,8.27842 -18.84508,11.34913 -0.54595,0.97557 -0.32368,1.06441 1.80062,0.71968 3.18655,-0.5171 3.06175,0.33797 -0.40987,2.80837 -4.88677,3.4774 -5.34832,3.94623 -4.93787,5.01583 0.67079,1.74805 3.71085,1.27758 4.45894,-0.69006 z m 15.1889,-52.31572 c 17.21871,-5.6732 33.2641,-15.85582 47.75819,-30.30797 14.36447,-14.32291 27.09187,-34.84312 28.18596,-45.44383 0.33058,-3.203044 0.20239,-3.623104 -1.68017,-5.505664 -1.90341,-1.90341 -2.36193,-2.03806 -6.94016,-2.03806 -20.18781,0 -43.81642,8.448824 -59.07807,21.124394 -13.56392,11.26552 -27.26296,30.65691 -33.05449,46.78961 -2.36675,6.59272 -3.0312,9.75426 -2.28081,10.85234 0.72201,1.05653 0.18426,1.78324 6.24029,-8.43301 2.3909,-4.03333 5.568,-8.53333 7.06023,-10 l 2.71313,-2.66666 -1.14793,2.33333 c -0.63137,1.28333 -2.57165,4.43959 -4.31174,7.01391 -3.73992,5.53291 -6.26011,10.36286 -7.21316,13.82404 -0.59873,2.17444 -0.52716,2.59159 0.54293,3.16428 1.21236,0.64884 1.83327,0.55674 5.50662,-0.81674 1.54321,-0.57701 1.70848,-0.85298 1.0128,-1.69122 -0.68184,-0.82156 -0.59387,-1.1646 0.48921,-1.90765 11.98234,-8.22055 27.37301,-18.00351 27.55022,-17.51209 0.40634,1.12683 -1.03832,2.27768 -13.21306,10.52587 -6.57844,4.45678 -12.14106,8.39492 -12.36139,8.75142 -0.66993,1.08397 1.42119,0.73342 6.07558,-1.01849 5.19491,-1.95536 4.93585,-1.91612 4.93585,-0.74754 0,0.50551 -0.975,1.31082 -2.16667,1.78957 -1.19167,0.47876 -3.13908,1.51607 -4.32759,2.30515 l -2.16092,1.4347 2.82759,0.11318 c 1.64527,0.0659 5.42421,-0.74235 9.03756,-1.93287 z m 5.75199,-9.90063 c 0.65261,-1.05596 11.53207,-8.06156 12.51932,-8.06156 1.17199,0 -2.73807,3.81311 -6.13223,5.98017 -3.38285,2.15984 -7.20546,3.40553 -6.38709,2.08139 z m -20.39151,-3.15686 c 2.49344,-4.97661 9.5853,-13.76553 17.41047,-21.57671 7.3118,-7.29873 17.94766,-15.99465 19.56284,-15.99465 0.86398,0 0.47278,0.38441 -8.54376,8.39551 -8.49887,7.55115 -18.02756,17.46511 -23.8694,24.83449 -5.75982,7.26592 -6.26769,7.74942 -4.56015,4.34136 z m 6.91652,-1.03228 c 0.43059,-1.29178 5.1295,-4.81247 5.67667,-4.25329 0.27666,0.28273 -0.67196,1.5341 -2.10805,2.7808 -2.67286,2.32038 -4.03917,2.88415 -3.56862,1.47249 z m 8.17969,-7.20575 c 0.22662,-0.36667 0.54432,-0.66667 0.70602,-0.66667 0.16169,0 0.29398,0.3 0.29398,0.66667 0,0.36667 -0.3177,0.66667 -0.70601,0.66667 -0.3883,0 -0.5206,-0.3 -0.29399,-0.66667 z m 18.66667,-6.66667 c 0.22661,-0.36666 0.71202,-0.66666 1.07869,-0.66666 0.36667,0 0.48126,0.3 0.25464,0.66666 -0.22661,0.36667 -0.71202,0.66667 -1.07869,0.66667 -0.36666,0 -0.48125,-0.3 -0.25464,-0.66667 z m 10.33333,-7.22598 c 0,-0.86296 5.32435,-5.91099 7.86272,-7.45466 3.32646,-2.02294 2.52311,-0.43866 -1.69605,3.34478 -4.1655,3.73531 -6.16667,5.06902 -6.16667,4.10988 z m -52.29752,8.32067 c 0.217,-0.86459 -0.0946,-2.73959 -0.69243,-4.16667 -2.40553,-5.74216 -6.48505,-23.50299 -5.84175,-25.43291 0.46141,-1.38422 1.49711,-0.92596 1.51778,0.67156 0.0107,0.825 0.60668,3.6 1.32444,6.16667 0.71776,2.56666 1.92996,7.21666 2.69378,10.33333 1.57803,6.43891 2.62129,8.0563 4.29864,6.66423 1.67213,-1.38774 2.47055,-3.28811 2.92011,-6.9503 0.37433,-3.04943 0.57802,-3.3806 2.0793,-3.3806 h 1.66432 l 0.18709,-8.98708 c 0.1029,-4.9429 0.4779,-9.2779 0.83333,-9.63334 0.41722,-0.41721 0.65198,-0.18552 0.66243,0.65376 0.009,0.715 0.17376,2.95 0.36635,4.96666 0.73935,7.74196 1.45436,8.29355 5.15158,3.97417 3.71693,-4.34239 5.62849,-13.45088 6.0481,-28.818854 0.46675,-17.094586 -3.69454,-41.264467 -8.97278,-52.116269 -5.43186,-11.167646 -9.54391,-12.386047 -16.32978,-4.838524 -7.98894,8.885625 -14.99069,26.032727 -16.65982,40.799473 -2.09013,18.49138 2.5668,43.946994 11.52543,63.000004 3.93679,8.37268 6.31653,10.70986 7.22388,7.09469 z m 1.77521,-12.92802 c -1.93786,-2.77606 -3.32449,-9.92274 -2.87803,-14.83333 l 0.15153,-1.66667 0.61949,1.54478 c 0.34072,0.84963 0.7503,2.19963 0.91017,3 0.15988,0.80037 0.73777,3.70522 1.2842,6.45522 0.54643,2.75 1.19994,5.525 1.45223,6.16667 0.68597,1.74465 -0.0913,1.40809 -1.53959,-0.66667 z m 13.57756,-19 c -0.18618,-1.19167 -0.5266,-5.31667 -0.75649,-9.16667 -0.22989,-3.85 -0.51953,-8.425004 -0.64365,-10.166664 -0.36775,-5.16016 0.71755,-3.61253 1.82381,2.600754 1.20384,6.76132 1.5789,18.89925 0.58398,18.89925 -0.36803,0 -0.82147,-0.975 -1.00765,-2.16667 z M 344.074,102.04832 c -0.6979,-0.69791 -0.5193,-3.555564 0.22223,-3.555564 0.36666,0 0.66666,0.9 0.66666,2.000004 0,2.07124 -0.13571,2.30874 -0.88889,1.55556 z m 0.21693,-13.895274 c -0.95093,-1.1458 -0.52869,-6.05964 0.61935,-7.20768 0.51459,-0.51459 0.71928,0.55181 0.71928,3.74739 0,2.45667 -0.11327,4.46667 -0.2517,4.46667 -0.13844,0 -0.62756,-0.45287 -1.08693,-1.00638 z m 127.67196,52.416074 c 14.09689,-2.52598 20.89588,-4.59506 31.66666,-9.63688 13.42225,-6.28298 24.29272,-16.61994 24.76601,-23.55052 0.23489,-3.43957 -0.68556,-4.74469 -4.7942,-6.7978 -12.43515,-6.213924 -37.53336,-7.422594 -56.78163,-2.734464 -10.79655,2.629624 -15.19018,5.719214 -15.19018,10.681704 v 2.60276 l 3.16667,-0.4145 c 3.82142,-0.5002 3.50941,-0.0623 -1.96655,2.76018 -3.53911,1.82414 -4.18274,2.42404 -4.08974,3.81184 0.0792,1.18233 -0.44517,1.97519 -1.85875,2.8102 -2.43813,1.44025 -5.54283,6.00401 -5.01688,7.37461 0.26909,0.70123 1.31483,1.01651 3.37165,1.01651 1.63987,0 3.14598,0.26601 3.34692,0.59113 0.70947,1.14794 -1.33819,1.92568 -5.78479,2.19718 -5.02743,0.30696 -5.62584,0.66495 -6.23936,3.73252 l -0.42917,2.14584 h 7.21667 c 9.73686,0 8.2717,1.10229 -2.38333,1.79307 -6.72285,0.43585 -8.33334,0.73352 -8.33334,1.54026 0,1.50491 4.90105,1.92015 19.33334,1.63801 8.70304,-0.17013 14.96139,-0.6588 20,-1.56165 z m -28.18511,-6.86915 c 0.33741,-1.02963 0.85893,-1.13978 18.18511,-3.84073 14.48142,-2.25749 15.26409,-2.33315 14.70037,-1.42101 -0.50329,0.81433 -13.33664,3.78421 -20.03371,4.63617 -11.60446,1.47626 -13.15527,1.55175 -12.85177,0.62557 z m 17.18511,-6.39789 c 0,-1.00765 2.1276,-1.61505 2.91147,-0.83118 0.47359,0.47359 0.45581,0.68853 -0.057,0.68853 -0.41001,0 -1.22001,0.18209 -1.8,0.40466 -0.57999,0.22256 -1.05452,0.10466 -1.05452,-0.26201 z m 17.875,0.0686 c 0.48125,-0.19258 1.05625,-0.16889 1.27777,0.0526 0.22153,0.22152 -0.17222,0.37909 -0.875,0.35014 -0.77663,-0.032 -0.9346,-0.18996 -0.40277,-0.40278 z m -32.875,-2.7065 c 0.94187,-0.92794 6.44972,-2.17641 9.46188,-2.14473 l 2.53812,0.0267 -1.95837,1.06012 c -2.20393,1.19304 -11.13369,2.13382 -10.04163,1.05792 z m 14.66666,-2.83809 c 0.22662,-0.36666 0.69432,-0.66666 1.03935,-0.66666 0.34502,0 0.62732,0.3 0.62732,0.66666 0,0.36667 -0.46771,0.66667 -1.03935,0.66667 -0.57163,0 -0.85393,-0.3 -0.62732,-0.66667 z m -4.69907,-6.61423 c 0.80606,-1.30423 15.11556,-5.42535 24.68727,-7.1099 5.12957,-0.90277 12.91996,-1.29513 12.24136,-0.61654 -0.1793,0.1793 -4.69201,1.20437 -10.02826,2.27793 -5.33624,1.07356 -13.03462,2.87687 -17.10749,4.00734 -7.57796,2.10334 -10.46468,2.52817 -9.79288,1.44117 z m -58.32689,-14.84481 c 0.74761,-0.802474 1.3593,-1.708194 1.3593,-2.012704 0,-0.30451 0.71727,-0.37364 1.59394,-0.15361 2.03816,0.51155 2.47625,-0.25052 2.82948,-4.92194 0.79487,-10.51198 4.53797,-28.575369 6.30352,-30.419373 0.82331,-0.859887 0.85769,-1.096899 -1.35785,9.36132 -2.36554,11.166353 -3.00146,16.620783 -2.40302,20.611443 0.53099,3.54093 1.37998,3.80764 2.63328,0.82724 0.50112,-1.19167 1.37708,-3.21667 1.94658,-4.5 l 1.03546,-2.33334 0.0426,3.88222 c 0.0365,3.32254 0.21083,3.85114 1.2093,3.66667 1.82949,-0.33801 5.29271,-8.17468 6.48876,-14.68292 1.46531,-7.973415 1.48817,-25.72612 0.0384,-29.80841 -1.32675,-3.735833 -2.16127,-4.724223 -3.98877,-4.724223 -3.36202,0 -10.629,8.699066 -14.6139,17.493837 -4.25129,9.382694 -7.73056,23.731896 -7.74736,31.951636 -0.006,2.81168 0.17166,5.586684 0.39422,6.166674 0.57612,1.50135 2.64446,1.30383 4.23604,-0.40452 z m 3.3593,-17.795604 c 0,-0.73333 0.3,-1.51874 0.66667,-1.74536 0.36666,-0.22661 0.66666,0.18798 0.66666,0.92131 0,0.73334 -0.3,1.51875 -0.66666,1.74536 -0.36667,0.22661 -0.66667,-0.18798 -0.66667,-0.92131 z m 52.42028,-12.844077 c 0.56315,-6.016577 2.14247,-14.759514 3.17347,-17.567946 l 0.97896,-2.666667 0.0469,2.666667 c 0.0258,1.466666 -0.40308,5.018057 -0.95302,7.891978 -1.05934,5.536026 -1.33681,12.441576 -0.49989,12.441028 0.275,-1.8e-4 1.79076,-1.499145 3.36834,-3.331033 2.62992,-3.053851 5.51579,-8.169241 8.46342,-15.001973 1.84235,-4.27062 1.84991,-1.716369 0.009,2.981496 -2.83793,7.241518 -2.00436,7.979609 2.541,2.249931 4.44618,-5.604926 8.734,-14.272962 11.32681,-22.898094 3.19228,-10.619318 4.03917,-16.069632 3.65076,-23.495173 -0.36734,-7.0229049 -1.76143,-10.5048269 -4.20592,-10.5048269 -3.81892,0 -15.32849,10.4137079 -21.16346,19.1484299 -3.92228,5.871486 -7.43981,13.23537 -8.84567,18.518237 -2.15447,8.095957 -1.86277,29.993588 0.43645,32.763979 1.07654,1.29716 1.29057,0.888263 1.67285,-3.196033 z m 7.15276,-12.40128 c 0.18125,-0.641666 0.53382,-2.516666 0.78347,-4.166666 0.62629,-4.139206 4.12163,-14.970583 6.1314,-19 2.31656,-4.64453 6.26922,-11.131756 6.5882,-10.812776 0.14598,0.145977 -1.19674,3.388569 -2.98381,7.205761 -3.12993,6.685553 -6.09734,15.012537 -8.47199,23.773681 -0.62114,2.291667 -1.41003,4.166667 -1.75309,4.166667 -0.34306,0 -0.47544,-0.525 -0.29418,-1.166667 z m 5.09362,-29.127322 c 0,-0.571639 0.3,-1.039344 0.66667,-1.039344 0.36667,0 0.66667,0.282295 0.66667,0.627322 0,0.345027 -0.3,0.812732 -0.66667,1.039344 -0.36667,0.226613 -0.66667,-0.05568 -0.66667,-0.627322 z m 49.33891,25.959482 c 9.92941,-2.088716 20.17983,-7.782441 26.85152,-14.915022 2.28408,-2.441869 3.1429,-3.900207 3.1429,-5.336876 0,-2.408883 -1.82012,-3.147159 -9.37766,-3.803752 -12.06745,-1.04841 -26.87002,4.176326 -36.26101,12.798741 -3.56836,3.276322 -3.57659,4.417885 -0.0196,2.721684 1.27873,-0.609783 2.33328,-0.88855 2.34345,-0.619482 0.0102,0.269068 -1.68592,2.018278 -3.7691,3.887133 -2.26843,2.035051 -3.59703,3.706255 -3.31248,4.166667 0.65075,1.052932 2.40754,0.965281 3.67726,-0.183469 0.57888,-0.523719 3.4525,-1.591535 6.38583,-2.372925 2.93333,-0.781391 7.88333,-2.471804 11,-3.756475 7.6155,-3.13906 8.24357,-3.315747 7.87696,-2.215924 -0.42157,1.264701 -5.01058,3.46937 -13.21029,6.346537 -7.93241,2.783372 -7.61529,2.62212 -7.02741,3.573316 0.62729,1.014981 6.14588,0.878119 11.69965,-0.290153 z m 44.96779,686.834511 c -0.17497,-0.45833 -0.24055,-23.48333 -0.14574,-51.16667 l 0.17237,-50.33333 2.5,-0.20691 2.5,-0.20691 v 7.70691 c 0,4.2388 0.225,7.7046 0.5,7.70178 0.275,-0.003 1.22429,-1.2729 2.10952,-2.82238 4.43988,-7.77139 12.5284,-13.30138 21.05715,-14.39645 23.2617,-2.98672 39.51038,14.60437 38.13459,41.28512 -1.0068,19.52468 -12.09999,33.47966 -27.99599,35.21831 -13.37766,1.4632 -23.5532,-3.08843 -30.55956,-13.66962 l -2.91238,-4.39834 -0.1753,23.06091 -0.17531,23.06091 h -2.34561 c -1.29009,0 -2.48878,-0.375 -2.66374,-0.83333 z m 45.87833,-34.84024 c 9.41717,-4.63095 15.81496,-17.03407 15.81496,-30.65976 0,-5.36903 -1.74695,-13.39448 -3.93213,-18.06411 -2.65344,-5.67027 -6.63939,-9.81063 -11.97213,-12.43593 -4.19469,-2.06504 -4.7618,-2.16663 -12.09573,-2.16663 -7.35162,0 -7.89316,0.0977 -12.14559,2.19117 -14.96429,7.36689 -20.49272,31.01985 -11.51483,49.26529 3.35486,6.81795 9.30618,11.80214 16.15006,13.52557 1.3807,0.34768 5.51036,0.54358 9.17702,0.43533 5.74117,-0.16951 7.20138,-0.45978 10.51837,-2.09093 z m 378.1483,35.23574 c -1.1,-0.13093 -3.1421,-0.55314 -4.538,-0.93825 -2.4141,-0.66602 -2.528,-0.82034 -2.3333,-3.16205 0.1856,-2.23331 0.3593,-2.43092 1.8713,-2.12853 0.9166,0.18333 5.4166,0.33333 10,0.33333 7.6105,0 8.6583,-0.15237 12.08002,-1.75678 7.586,-3.55698 11.8096,-9.26379 13.2551,-17.90989 0.3985,-2.38333 0.6361,-8.38333 0.528,-13.33333 l -0.1965,-9 -2.3954,3.66667 c -9.2013,14.08464 -27.51492,18.47689 -42.38542,10.16556 -7.3526,-4.10943 -13.4933,-13.11224 -15.9214,-23.34216 -1.6273,-6.85631 -1.0553,-17.98489 1.2666,-24.64413 4.9768,-14.27288 16.5618,-22.84594 30.8722,-22.84594 4.8889,0 11.0807,1.64456 15.35032,4.07708 3.9064,2.22562 9.5522,8.07964 11.7445,12.17764 l 1.4686,2.74528 0.1872,-8.16667 0.1872,-8.16666 h 2.6462 2.6461 l -0.023,36.5 c -0.026,40.59695 -0.2777,43.79223 -4.0015,50.77881 -5.7283,10.74743 -18.39072,16.60663 -32.30862,14.95002 z m 14.4676,-38.0811 c 20.19272,-9.94085 21.24382,-46.29797 1.67012,-57.76892 -4.67432,-2.73935 -11.78202,-3.99211 -17.43972,-3.07383 -8.4498,1.37146 -13.7786,4.66657 -18.1205,11.20488 -6.7408,10.15083 -7.3951,26.75341 -1.5089,38.29125 1.843,3.61267 6.2361,8.26388 9.7504,10.32341 4.8397,2.83625 7.978,3.54156 14.9002,3.34873 5.6467,-0.15729 6.8909,-0.42649 10.7484,-2.32552 z M 1178.2962,690.533 v -51.37357 h 2.6455 2.6455 l 0.1878,7.83333 0.1879,7.83333 1.8769,-3.19316 c 5.7549,-9.79039 14.4113,-14.63969 26.023,-14.57795 9.7817,0.052 16.5396,2.78144 22.9123,9.25406 3.854,3.91439 7.4663,10.74434 9.1392,17.27995 1.3877,5.42104 1.4028,18.57853 0.028,23.93037 -3.805,14.80704 -13.8353,24.61222 -26.8488,26.24625 -6.6657,0.83697 -13.4903,-0.12309 -18.5609,-2.61106 -4.4853,-2.20081 -11.4941,-9.05979 -13.4483,-13.16071 -1.0802,-2.26687 -1.133,-1.51908 -1.4543,20.57328 l -0.3338,22.92564 -2.5,0.20691 -2.5,0.20691 z m 45.4299,15.76614 c 6.4782,-3.17911 11.2507,-8.97767 14.0471,-17.06734 1.3224,-3.82545 1.5185,-5.67886 1.4889,-14.07237 -0.033,-9.36374 -0.1042,-9.84425 -2.2739,-15.33334 -1.8837,-4.76573 -2.9427,-6.37105 -6.6607,-10.09708 -3.8062,-3.8144 -5.0524,-4.62549 -8.963,-5.83334 -5.3563,-1.65441 -12.4137,-1.82747 -17.6534,-0.4329 -10.4276,2.77539 -17.9839,13.17697 -19.3229,26.59888 -1.5011,15.04825 3.0702,27.81097 12.2178,34.1112 5.0466,3.47569 8.6555,4.35611 16.7868,4.09525 5.6785,-0.18218 7.3359,-0.49797 10.3333,-1.96896 z m 124.4034,32.48158 c -0.275,-0.2806 -0.5,-1.52856 -0.5,-2.77325 v -2.26307 l 3,0.44987 c 6.6618,0.999 11.2972,-1.00291 14.6175,-6.31291 1.9733,-3.15568 8.6289,-18.77813 8.5441,-20.05527 -0.057,-0.86469 -23.7648,-59.18935 -26.4977,-65.18928 -1.4501,-3.18368 -1.2947,-3.47738 1.8401,-3.47738 h 2.8373 l 12.2262,30.56333 c 6.7243,16.80983 12.4835,30.97977 12.7981,31.48876 0.6628,1.07251 -0.3447,3.25331 12.6511,-27.38543 5.2101,-12.28333 10.623,-25.03333 12.0286,-28.33333 l 2.5557,-6 3.1196,-0.20674 c 2.3623,-0.15655 3.035,0.005 2.7716,0.66667 -0.1914,0.48037 -3.6946,8.5234 -7.7849,17.8734 -4.0903,9.35 -12.7292,29.10874 -19.1975,43.9083 -6.4683,14.79956 -12.5938,28.16629 -13.6122,29.70384 -1.0184,1.53755 -3.2795,3.82092 -5.0246,5.07416 -2.9879,2.14575 -3.5432,2.2932 -9.5229,2.52857 -3.4926,0.13747 -6.5751,0.0204 -6.8501,-0.26024 z M 760.01305,713.76375 c -23.08426,-2.58371 -35.93828,-33.30863 -24.22765,-57.91128 4.2936,-9.02035 11.65158,-15.44432 20.25724,-17.68581 4.406,-1.14762 13.18294,-1.29831 17.51046,-0.30064 10.43337,2.40532 19.00845,10.9122 23.48017,23.29341 1.37641,3.81095 1.56695,5.53881 1.58067,14.33333 0.0146,9.36473 -0.10524,10.32841 -1.88645,15.16963 -6.29008,17.09596 -18.98758,25.08545 -36.71444,23.10136 z m 17.40637,-7.96119 c 17.8612,-8.73837 21.9015,-39.12442 7.32458,-55.08629 -10.2384,-11.21115 -28.74429,-11.10988 -39.09363,0.21395 -4.17657,4.56984 -5.71858,7.5008 -7.39524,14.05646 -2.29939,8.99053 -1.50889,19.45032 2.06577,27.33406 2.39317,5.27801 8.12375,11.37549 12.87962,13.70421 7.08873,3.47101 16.85286,3.38135 24.2189,-0.22239 z m 59.91935,8.00708 c -4.07682,-0.71258 -6.31747,-2.29871 -8.04257,-5.69324 -1.26673,-2.49259 -1.34349,-4.16371 -1.53662,-33.45697 l -0.20329,-30.83334 h -7.63004 -7.63005 v -2.33333 -2.33333 h 7.65163 7.65163 l 0.1817,-12.16667 0.18171,-12.16667 2.5,-0.20691 2.5,-0.20691 v 12.37358 12.37358 h 9.33333 9.33333 v 2.33333 2.33333 h -9.36493 -9.36492 l 0.19826,30.16667 c 0.18856,28.69004 0.26285,30.27348 1.5178,32.3488 2.03153,3.35955 8.48259,4.36245 15.51379,2.41183 1.35079,-0.37474 1.5,-0.18212 1.5,1.93635 0,2.20748 -0.1541,2.37555 -2.5,2.72658 -5.59875,0.83777 -8.66312,0.93999 -11.79076,0.39332 z m 59.43655,-0.0201 c -8.64623,-1.00204 -17.17447,-6.54934 -22.2904,-14.49907 -9.9895,-15.52286 -8.36242,-39.23216 3.5754,-52.09969 6.97597,-7.51925 14.5432,-10.39997 25.98279,-9.8912 6.01622,0.26757 7.29318,0.55715 11.67089,2.64661 18.12978,8.65329 25.46658,35.04075 15.50262,55.75668 -4.40539,9.15919 -13.96693,16.67846 -22.58709,17.76266 -6.50609,0.81831 -7.38241,0.84226 -11.85421,0.32401 z m 16.85421,-7.76672 c 20.63165,-10.04673 22.38095,-46.55409 2.85063,-59.49043 -8.00122,-5.29978 -20.77267,-5.48704 -28.7632,-0.42172 -3.50288,2.22053 -8.374,7.67638 -10.36943,11.61417 -3.42733,6.7635 -4.70321,18.02525 -3.0412,26.84363 1.68936,8.96357 7.9683,17.69432 15.42911,21.45394 6.79314,3.42316 16.86488,3.42334 23.89409,4.1e-4 z m 199.73197,7.66788 c -11.926,-1.41893 -21.179,-10.09035 -25.8207,-24.1979 -1.2905,-3.92209 -1.5386,-6.10263 -1.5554,-13.66667 -0.017,-7.61705 0.2203,-9.76571 1.5435,-13.98318 2.2295,-7.1064 4.2062,-10.66813 8.4865,-15.29129 8.9083,-9.62209 24.7188,-12.50277 36.7199,-6.69042 4.5156,2.18695 10.5372,8.10559 13.0739,12.85027 l 1.487,2.78129 0.1872,-8.16667 0.1872,-8.16666 h 2.6517 2.6518 l -0.1723,37.16666 -0.1723,37.16663 h -2.3333 -2.3333 l -0.3334,-8.95499 -0.3333,-8.95499 -2.5194,4.08696 c -4.5671,7.40865 -12.5767,12.9872 -19.8587,13.83122 -6.3705,0.73838 -6.8753,0.74666 -11.5566,0.1897 z m 17.8513,-7.77378 c 9.3097,-4.58312 14.6613,-13.92231 15.524,-27.09079 0.5231,-7.98551 -0.6007,-14.84285 -3.4071,-20.79052 -2.9621,-6.27757 -6.7889,-10.34425 -12.2734,-13.04285 -4.1953,-2.06426 -4.7661,-2.1666 -12.0817,-2.16607 -6.8718,5e-4 -8.0636,0.1819 -11.3451,1.72678 -4.5448,2.13963 -7.4381,4.54908 -10.0886,8.40151 -4.9745,7.23013 -7.0298,17.05527 -5.8842,28.12822 1.0633,10.27784 5.51,18.72449 12.2378,23.24612 4.9971,3.35842 8.4006,4.18569 16.1951,3.93642 6.0537,-0.1936 7.2649,-0.44935 11.1232,-2.34882 z m -483.26013,7.11846 c -0.18391,-0.48175 -0.25684,-24.42591 -0.16208,-53.20925 l 0.17229,-52.33337 2.5,-0.20691 2.5,-0.20691 v 23.37358 c 0,12.85546 0.225,23.37126 0.5,23.36844 0.275,-0.003 1.18356,-1.20214 2.01902,-2.66514 2.24163,-3.92536 5.10626,-6.95359 9.01008,-9.52464 4.11179,-2.70802 7.22276,-3.79884 12.73642,-4.46583 12.95661,-1.56738 24.88406,4.51036 30.20436,15.39091 3.52594,7.21089 3.86345,10.43762 3.86345,36.9365 v 24 h -2.33334 -2.33333 l -0.37039,-25.33333 c -0.35428,-24.2309 -0.43663,-25.51438 -1.89236,-29.49355 -3.06591,-8.38051 -10.81699,-14.23329 -20.43422,-15.42971 -11.21205,-1.39483 -21.73627,3.1684 -26.65173,11.55601 -3.9052,6.66371 -3.91365,6.73001 -4.29646,33.70058 l -0.35484,25 -2.17125,0.20925 c -1.34247,0.12937 -2.29888,-0.12509 -2.50562,-0.66667 z m 396.78803,0.34631 c -0.2445,-0.24445 -0.4445,-17.06256 -0.4445,-37.37358 v -36.92913 l 2.5,0.20691 2.5,0.20691 0.087,5.19814 c 0.048,2.85898 0.2729,5.38398 0.5,5.61112 0.2272,0.22713 0.413,-0.0736 0.413,-0.66834 0,-2.01027 6.758,-8.15867 10.2854,-9.35758 3.7578,-1.27723 9.8676,-1.45879 12.9485,-0.38479 1.9336,0.67409 2.0994,0.96783 2.0994,3.71964 v 2.98775 l -2.1666,-0.55297 c -1.1917,-0.30413 -4.1167,-0.53634 -6.5,-0.51601 -7.0809,0.0604 -12.2892,3.1678 -15.567,9.28764 -1.3899,2.59485 -1.4391,3.50789 -1.6344,30.32419 -0.1498,20.56298 -0.4061,27.7789 -1,28.15646 -0.9911,0.63002 -3.4239,0.68062 -4.0208,0.0836 z m 221.6888,-0.35556 c -0.9472,-0.94719 -1.162,-103.59685 -0.2198,-105.08279 0.3366,-0.53091 1.4618,-0.79664 2.8231,-0.66666 l 2.2634,0.21608 v 23.16682 c 0,12.74175 0.15,23.15868 0.3333,23.14873 0.1834,-0.01 1.0834,-1.241 2,-2.73567 4.5953,-7.49284 12.5147,-12.69599 21,-13.7973 17.9436,-2.3289 31.8186,8.21392 34.2924,26.05669 0.4837,3.48949 0.691,13.64264 0.568,27.8274 l -0.1937,22.33333 h -2.3333 -2.3334 l -0.3768,-25.66667 c -0.2352,-16.01747 -0.6542,-26.47401 -1.1147,-27.81419 -3.3057,-9.62216 -10.6279,-15.50089 -20.8236,-16.7186 -12.7774,-1.52605 -23.2365,3.70791 -28.3918,14.20797 l -1.9597,3.99149 -0.1681,24.66667 c -0.092,13.56666 -0.3231,25.34166 -0.5127,26.16666 -0.2558,1.11335 -0.8225,1.5 -2.1986,1.5 -1.0197,0 -2.214,-0.36 -2.654,-0.8 z M 968.96288,599.52052 c -20.8473,-3.24034 -37.80895,-10.94336 -49.21736,-22.35177 -12.80923,-12.80923 -18.89769,-28.45391 -18.94331,-48.67599 -0.0395,-17.49944 2.96006,-30.49205 11.15846,-48.33333 6.28428,-13.67579 15.66558,-26.47679 29.59831,-40.3875 16.3523,-16.32649 30.3075,-26.1196 54.0705,-37.94401 12.18322,-6.0623 23.03842,-10.36423 39.43902,-15.62971 7.5747,-2.4319 14.1364,-4.86049 14.5816,-5.39688 1.2516,-1.50804 -0.047,-2.55307 -6.2045,-4.99174 -21.7682,-8.62176 -34.5876,-19.80436 -38.8671,-33.90449 -1.2664,-4.17257 -1.1991,-13.33494 0.1321,-17.9764 1.4313,-4.99037 4.2727,-10.68284 8.2972,-16.62247 1.8086,-2.66925 3.2884,-5.427 3.2884,-6.12833 0,-0.97254 -2.6499,-2.66111 -11.1667,-7.11552 -16.16162,-8.45286 -29.79892,-18.01807 -34.85772,-24.44926 -5.1788,-6.58378 -3.0153,-11.71019 4.632,-10.97538 3.1763,0.3052 3.6583,0.62376 8.7061,5.75364 10.3332,10.50108 30.84522,23.99945 40.29222,26.51508 4.9636,1.32174 5.7024,1.21136 14.0862,-2.10451 15.4419,-6.10746 29.0336,-8.87796 46.3273,-9.44327 13.437,-0.43923 21.6984,0.32942 30.3912,2.82762 11.7766,3.38441 18.0878,7.63642 21.0543,14.18462 3.0526,6.73841 -1.4558,13.77775 -11.1461,17.40336 -7.1586,2.67836 -15.1198,3.65813 -29.6521,3.64925 -18.9214,-0.0116 -33.7491,-2.23174 -51.315,-7.68347 -10.9967,-3.41293 -11.866,-3.38233 -15.3178,0.53906 -4.8053,5.45911 -9.3672,16.60206 -9.3672,22.88031 0,3.48015 1.765,9.69488 3.6827,12.9672 5.1973,8.86864 22.0812,19.78981 38.6506,25.00085 10.0941,3.17454 19.5548,4.25037 29,3.29775 5.7064,-0.57554 8.3634,-0.58144 10.3914,-0.0231 4.6129,1.27003 5.4916,6.03243 1.3644,7.39454 -1.157,0.38185 -7.5004,1.59708 -14.0964,2.70052 -34.6966,5.80434 -62.8681,15.06294 -90.65942,29.79524 -42.69,22.63024 -68.73517,52.40378 -76.31368,87.23809 -3.0488,14.01372 -2.36409,32.70974 1.71417,46.80528 4.82914,16.6908 15.11781,28.53138 31.06101,35.74606 25.1279,11.37103 72.22422,7.47363 113.53852,-9.39576 27.9289,-11.40387 58.5721,-30.65731 101.6667,-63.87812 17.2243,-13.27793 26.1802,-20.46985 33.0366,-26.52957 6.7223,-5.94125 16.3399,-12.58983 19.9224,-13.77214 2.0401,-0.67332 2.6855,-0.62966 4.0663,0.27511 3.021,1.9794 2.2538,4.28299 -3.4431,10.33885 -11.5236,12.2497 -47.5356,41.74281 -72.8346,59.65017 -49.4304,34.9883 -82.4826,49.52075 -130.7476,57.48732 -8.7514,1.44449 -12.936,1.73914 -27.33342,1.92459 -11.7959,0.15194 -18.7346,-0.0507 -22.6666,-0.66181 z M 1109.9013,307.52545 c 6.4398,-1.23215 9.4089,-2.65226 10.3635,-4.95688 1.8985,-4.58338 -3.9804,-9.62555 -14.6353,-12.5522 -6.7586,-1.85645 -30.4308,-1.61898 -39.9285,0.40054 -8.2484,1.75389 -15.5734,4.47312 -17.9404,6.65997 -1.5817,1.46132 -1.6262,1.64878 -0.5741,2.41813 2.7866,2.03756 23.2146,7.05746 33.443,8.21815 8.6665,0.98343 23.653,0.88733 29.2718,-0.18771 z M 715.21239,494.03313 c -3.74428,-0.73466 -5.4133,-4.99398 -7.19504,-18.36171 -1.44509,-10.84193 0.0387,-14.17866 6.30507,-14.17866 2.6308,0 3.582,0.34723 5.20142,1.89873 1.09002,1.04431 2.16558,2.87812 2.39015,4.07514 0.22456,1.19703 0.93877,2.65648 1.58712,3.24324 1.09834,0.99398 1.54125,0.74953 6.48696,-3.58029 9.51361,-8.32887 17.0109,-10.73767 26.14073,-8.39871 6.90351,1.76859 8.83424,3.49785 18.13187,16.23972 2.19841,3.0128 5.26051,6.3128 6.80466,7.33333 2.7411,1.81159 3.02954,1.85505 12.18588,1.83601 11.07,-0.023 15.68834,-1.1236 26.67035,-6.35568 7.4686,-3.55821 11.4609,-4.19065 14.2263,-2.25369 4.06968,2.85051 -0.51515,7.40827 -12.9166,12.84033 -15.03851,6.58715 -38.86247,7.9611 -49.26279,2.84104 -5.17282,-2.54657 -7.71418,-5.02745 -14.76235,-14.411 -3.11036,-4.14096 -6.10924,-7.70325 -6.66418,-7.9162 -3.05364,-1.17179 -10.14091,5.69737 -19.65725,19.05231 -1.89612,2.66095 -3.98288,4.74913 -5.43409,5.43777 -2.18644,1.03754 -6.79513,1.33388 -10.23821,0.65832 z"
     id="path1" />
</svg>
